<svg width="380" height="381" viewBox="0 0 380 381" fill="none" xmlns="http://www.w3.org/2000/svg">
<path d="M63.7602 148.854L63.2836 145.244C62.5346 139.61 62.1553 133.88 62.1553 128.188C62.1455 57.6068 119.553 0.190674 190.101 0.190674C260.648 0.190674 318.056 57.6068 318.056 128.188C318.056 133.841 317.686 139.533 316.947 145.127L316.47 148.737L313.319 146.918C294.877 136.263 273.828 130.63 252.429 130.63C231.031 130.63 210.06 136.244 191.647 146.859L190.431 147.56L189.215 146.859C170.744 136.244 149.647 130.63 128.209 130.63C106.772 130.63 85.4508 136.302 66.8922 147.034L63.7407 148.854H63.7602ZM128.219 125.755C150.036 125.755 171.513 131.35 190.431 141.936C209.282 131.34 230.69 125.755 252.429 125.755C274.169 125.755 294.157 130.98 312.55 140.905C312.988 136.691 313.202 132.42 313.202 128.188C313.202 60.2923 257.983 5.05562 190.11 5.05562C122.237 5.05562 67.0186 60.2923 67.0186 128.188C67.0186 132.459 67.2423 136.769 67.6801 141.021C86.19 131.019 107.044 125.755 128.229 125.755H128.219Z" fill="#F4A300"/>
<path d="M128.219 380.873C57.905 380.873 0.702148 323.651 0.702148 253.314C0.702148 207.914 25.1357 165.57 64.4705 142.821L67.622 141.002L68.0986 144.611C73.1662 182.714 96.2866 216.739 129.931 235.635L131.351 236.433L131.147 238.057C130.525 243.098 130.213 248.235 130.213 253.324C130.213 297.147 153.752 337.945 191.647 359.788L195.305 361.9L191.638 364.001C172.427 375.035 150.494 380.873 128.21 380.873H128.219ZM63.8188 148.873C27.8008 171.155 5.56551 210.843 5.56551 253.304C5.56551 320.956 60.5896 375.998 128.219 375.998C148.247 375.998 167.982 371.094 185.558 361.793C148.315 338.606 125.35 297.429 125.35 253.304C125.35 248.556 125.613 243.769 126.138 239.06C92.999 219.882 69.9564 186.47 63.8188 148.873Z" fill="#E54F35"/>
<path d="M130.71 241.638L127.549 239.867C92.5811 220.223 68.5561 184.855 63.2745 145.244L63.0605 143.629L64.4709 142.812C83.7687 131.651 105.809 125.745 128.22 125.745C150.63 125.745 172.438 131.583 191.648 142.617L195.315 144.719L191.658 146.83C158.47 165.969 135.855 200.062 131.157 238.028L130.71 241.628V241.638ZM68.3324 146.217C73.6627 182.48 95.3435 214.891 126.839 233.825C132.461 197.211 154.103 164.422 185.569 144.826C167.992 135.524 148.257 130.62 128.23 130.62C107.22 130.62 86.5506 136.01 68.3324 146.217Z" fill="#E96092"/>
<path d="M252.43 380.873C230.224 380.873 208.368 375.035 189.216 364.001L185.559 361.89L189.226 359.788C227.257 337.935 250.874 297.137 250.874 253.324C250.874 248.07 250.543 242.786 249.872 237.6L249.667 235.985L251.078 235.177C284.304 216.185 307.123 182.286 312.123 144.485L312.599 140.875L315.751 142.695C355.076 165.424 379.5 207.807 379.5 253.314C379.5 323.651 322.491 380.873 252.42 380.873H252.43ZM195.314 361.812C212.823 371.114 232.48 376.008 252.43 376.008C319.816 376.008 374.646 320.966 374.646 253.314C374.646 210.746 352.43 171.018 316.412 148.756C310.362 186.051 287.621 219.318 254.9 238.583C255.455 243.448 255.747 248.4 255.747 253.314C255.747 297.449 232.704 338.626 195.314 361.812Z" fill="#FFDB14"/>
<path d="M250.339 241.2L249.881 237.591C245.057 199.819 222.374 165.891 189.226 146.84L185.559 144.738L189.216 142.627C208.358 131.583 230.224 125.755 252.43 125.755C274.636 125.755 296.579 131.613 315.76 142.695L317.171 143.512L316.957 145.127C311.763 184.417 288.039 219.658 253.5 239.4L250.339 241.2ZM195.305 144.816C226.732 164.315 248.432 196.929 254.181 233.339C285.267 214.326 306.647 182.062 311.899 146.1C293.807 135.962 273.274 130.62 252.43 130.62C231.585 130.62 212.823 135.514 195.314 144.816H195.305Z" fill="#E96092"/>
<path d="M190.432 364.702L189.216 364.001C149.823 341.282 125.351 298.869 125.351 253.314C125.351 248.031 125.681 242.689 126.323 237.454L126.771 233.854L129.932 235.625C148.208 245.89 169.024 251.319 190.111 251.319C211.199 251.319 232.607 245.734 251.088 235.168L254.249 233.368L254.706 236.977C255.397 242.358 255.747 247.856 255.747 253.314C255.747 298.869 231.187 341.282 191.658 364.001L190.442 364.702H190.432ZM130.768 241.619C130.399 245.501 130.214 249.422 130.214 253.314C130.214 296.67 153.247 337.059 190.432 359.078C227.754 337.059 250.874 296.67 250.874 253.314C250.874 249.266 250.67 245.199 250.281 241.171C231.848 250.998 211.131 256.184 190.101 256.184C169.072 256.184 148.967 251.154 130.759 241.609L130.768 241.619Z" fill="#E96092"/>
<path d="M190.11 256.175C168.186 256.175 146.554 250.531 127.558 239.858L126.138 239.06L126.342 237.435C131.225 197.951 154.734 162.515 189.235 142.617L190.451 141.917L191.667 142.617C226.128 162.417 249.706 197.688 254.725 236.968L254.929 238.583L253.519 239.391C234.299 250.376 212.385 256.175 190.13 256.175H190.11ZM131.371 236.413C149.297 246.163 169.567 251.31 190.11 251.31C210.653 251.31 231.527 246.007 249.667 235.966C244.473 199.303 222.461 166.446 190.441 147.54C158.382 166.523 136.438 199.556 131.371 236.404V236.413Z" fill="#E96092"/>
<path d="M149.297 65.6243C149.297 67.3855 148.966 68.8839 148.295 70.1196C147.634 71.3553 146.729 72.2991 145.581 72.951C144.434 73.6029 143.15 73.924 141.73 73.924C140.309 73.924 139.006 73.6029 137.868 72.951C136.73 72.2991 135.825 71.3553 135.164 70.1196C134.503 68.8839 134.172 67.3855 134.172 65.6341C134.172 63.8827 134.503 62.3746 135.164 61.1389C135.825 59.9032 136.73 58.9594 137.868 58.3075C139.006 57.6556 140.3 57.3345 141.73 57.3345C143.159 57.3345 144.443 57.6556 145.581 58.3075C146.729 58.9594 147.634 59.9032 148.295 61.1389C148.956 62.3746 149.297 63.873 149.297 65.6341V65.6243ZM145.834 65.6243C145.834 64.486 145.669 63.5227 145.328 62.7346C144.988 61.9562 144.511 61.3529 143.899 60.954C143.286 60.5551 142.566 60.3507 141.739 60.3507C140.912 60.3507 140.193 60.5551 139.58 60.954C138.967 61.3627 138.491 61.9562 138.15 62.7346C137.81 63.5227 137.644 64.4762 137.644 65.6243C137.644 66.7725 137.81 67.726 138.15 68.5141C138.491 69.3023 138.967 69.8958 139.58 70.2947C140.193 70.7034 140.912 70.898 141.739 70.898C142.566 70.898 143.286 70.6936 143.899 70.2947C144.511 69.886 144.988 69.2925 145.328 68.5141C145.669 67.7357 145.834 66.7725 145.834 65.6243Z" fill="black"/>
<path d="M154.005 66.6945V73.7001H150.649V61.5863H153.849V63.7269H153.995C154.268 63.0264 154.715 62.462 155.347 62.0534C155.98 61.6447 156.748 61.4307 157.643 61.4307C158.479 61.4307 159.219 61.6155 159.841 61.9853C160.464 62.355 160.95 62.8804 161.3 63.5615C161.65 64.2426 161.825 65.0502 161.825 65.994V73.7098H158.47V66.5972C158.47 65.8578 158.285 65.274 157.906 64.8556C157.526 64.4372 156.991 64.2329 156.32 64.2329C155.873 64.2329 155.474 64.3302 155.124 64.5248C154.783 64.7194 154.511 65.0015 154.316 65.3713C154.122 65.741 154.025 66.1886 154.025 66.7043L154.005 66.6945Z" fill="black"/>
<path d="M168.868 73.9434C167.623 73.9434 166.553 73.6904 165.658 73.1844C164.763 72.6785 164.072 71.9585 163.586 71.0244C163.1 70.0903 162.856 68.9811 162.856 67.7065C162.856 66.4319 163.1 65.3616 163.586 64.4275C164.072 63.4837 164.753 62.754 165.629 62.2285C166.514 61.7031 167.545 61.4404 168.731 61.4404C169.529 61.4404 170.278 61.5669 170.969 61.8199C171.659 62.0729 172.262 62.4621 172.778 62.968C173.293 63.474 173.702 64.1162 173.994 64.8848C174.285 65.6535 174.431 66.5584 174.431 67.5897V68.5141H164.199V66.4319H171.26C171.26 65.9454 171.153 65.5173 170.949 65.1475C170.745 64.7778 170.453 64.4859 170.074 64.2718C169.704 64.0578 169.276 63.9507 168.78 63.9507C168.284 63.9507 167.817 64.0675 167.428 64.301C167.039 64.5345 166.728 64.8459 166.514 65.2351C166.29 65.6243 166.183 66.0621 166.173 66.5389V68.5238C166.173 69.1271 166.29 69.6427 166.504 70.0806C166.728 70.5184 167.049 70.8492 167.457 71.0925C167.866 71.326 168.352 71.4525 168.916 71.4525C169.286 71.4525 169.636 71.4039 169.937 71.2968C170.249 71.1898 170.511 71.0341 170.735 70.8201C170.959 70.606 171.124 70.353 171.241 70.0514L174.344 70.2557C174.188 71.0049 173.867 71.6568 173.381 72.2114C172.894 72.766 172.272 73.1941 171.503 73.5055C170.735 73.8169 169.86 73.9628 168.858 73.9628L168.868 73.9434Z" fill="black"/>
<path d="M185.023 73.9433C183.778 73.9433 182.718 73.6806 181.823 73.1552C180.928 72.6298 180.247 71.8903 179.771 70.9465C179.294 70.0027 179.061 68.9227 179.061 67.6967C179.061 66.4708 179.304 65.3615 179.78 64.4275C180.267 63.4934 180.948 62.7539 181.833 62.2285C182.718 61.7031 183.778 61.4307 185.004 61.4307C186.064 61.4307 186.988 61.6253 187.776 62.0047C188.573 62.3842 189.196 62.9291 189.663 63.6199C190.13 64.3107 190.382 65.128 190.431 66.0621H187.26C187.173 65.4588 186.939 64.9723 186.55 64.6026C186.171 64.2329 185.675 64.048 185.052 64.048C184.527 64.048 184.08 64.1842 183.69 64.4664C183.301 64.7486 183 65.1572 182.786 65.6924C182.572 66.2275 182.465 66.8794 182.465 67.6383C182.465 68.3973 182.572 69.0686 182.786 69.6135C183 70.1584 183.301 70.567 183.69 70.8492C184.08 71.1314 184.537 71.2773 185.052 71.2773C185.432 71.2773 185.782 71.1995 186.093 71.0438C186.404 70.8881 186.657 70.6546 186.861 70.353C187.066 70.0514 187.192 69.6816 187.26 69.2632H190.431C190.382 70.1876 190.13 71.0049 189.682 71.7054C189.235 72.406 188.612 72.9606 187.824 73.3498C187.036 73.7487 186.103 73.9433 185.023 73.9433Z" fill="black"/>
<path d="M197.006 73.9434C195.761 73.9434 194.691 73.6904 193.796 73.1844C192.902 72.6785 192.211 71.9585 191.725 71.0244C191.238 70.0903 190.995 68.9811 190.995 67.7065C190.995 66.4319 191.238 65.3616 191.725 64.4275C192.211 63.4837 192.892 62.754 193.767 62.2285C194.652 61.7031 195.683 61.4404 196.87 61.4404C197.668 61.4404 198.417 61.5669 199.107 61.8199C199.798 62.0729 200.401 62.4621 200.916 62.968C201.432 63.474 201.84 64.1162 202.132 64.8848C202.424 65.6535 202.57 66.5584 202.57 67.5897V68.5141H192.337V66.4319H199.399C199.399 65.9454 199.292 65.5173 199.088 65.1475C198.883 64.7778 198.592 64.4859 198.212 64.2718C197.843 64.0578 197.415 63.9507 196.919 63.9507C196.423 63.9507 195.956 64.0675 195.567 64.301C195.178 64.5345 194.866 64.8459 194.652 65.2351C194.429 65.6243 194.322 66.0621 194.312 66.5389V68.5238C194.312 69.1271 194.429 69.6427 194.643 70.0806C194.866 70.5184 195.187 70.8492 195.596 71.0925C196.004 71.326 196.491 71.4525 197.055 71.4525C197.424 71.4525 197.775 71.4039 198.076 71.2968C198.387 71.1898 198.65 71.0341 198.874 70.8201C199.097 70.606 199.263 70.353 199.38 70.0514L202.482 70.2557C202.327 71.0049 202.006 71.6568 201.519 72.2114C201.033 72.766 200.411 73.1941 199.642 73.5055C198.874 73.8169 197.998 73.9628 196.997 73.9628L197.006 73.9434Z" fill="black"/>
<path d="M207.005 66.6945V73.7001H203.649V61.5863H206.85V63.7269H206.995C207.268 63.0264 207.715 62.462 208.347 62.0534C208.98 61.6447 209.748 61.4307 210.643 61.4307C211.479 61.4307 212.219 61.6155 212.841 61.9853C213.464 62.355 213.95 62.8804 214.3 63.5615C214.65 64.2426 214.825 65.0502 214.825 65.994V73.7098H211.47V66.5972C211.47 65.8578 211.285 65.274 210.906 64.8556C210.526 64.4372 209.991 64.2329 209.32 64.2329C208.873 64.2329 208.474 64.3302 208.124 64.5248C207.783 64.7194 207.511 65.0015 207.316 65.3713C207.122 65.741 207.025 66.1886 207.025 66.7043L207.005 66.6945Z" fill="black"/>
<path d="M222.782 61.5865V64.1066H215.487V61.5865H222.782ZM217.141 58.687H220.497V69.9834C220.497 70.2948 220.545 70.538 220.642 70.7034C220.74 70.8786 220.866 70.9953 221.041 71.0634C221.216 71.1316 221.411 71.1705 221.635 71.1705C221.79 71.1705 221.946 71.151 222.111 71.1316C222.277 71.1121 222.393 71.0829 222.471 71.0634L222.996 73.564C222.831 73.6127 222.588 73.6808 222.286 73.7489C221.985 73.817 221.615 73.8657 221.177 73.8754C220.37 73.9046 219.66 73.7976 219.057 73.5543C218.454 73.3111 217.977 72.9219 217.637 72.4062C217.296 71.8808 217.131 71.2289 217.141 70.431V58.6967V58.687Z" fill="black"/>
<path d="M223.862 73.7V61.5863H227.121V63.6977H227.247C227.471 62.9485 227.841 62.3744 228.356 61.9949C228.872 61.6155 229.475 61.4111 230.155 61.4111C230.321 61.4111 230.506 61.4209 230.7 61.4403C230.895 61.4598 231.07 61.489 231.216 61.5279V64.5052C231.06 64.4566 230.836 64.4177 230.564 64.3788C230.282 64.3398 230.029 64.3204 229.796 64.3204C229.3 64.3204 228.862 64.4274 228.473 64.6415C228.084 64.8555 227.782 65.1474 227.558 65.5269C227.335 65.9064 227.228 66.3442 227.228 66.8404V73.7H223.872H223.862Z" fill="black"/>
<path d="M234.941 73.9339C234.173 73.9339 233.482 73.7977 232.879 73.5252C232.276 73.2528 231.799 72.8538 231.449 72.3187C231.099 71.7836 230.924 71.1219 230.924 70.3143C230.924 69.643 231.05 69.0786 231.293 68.6213C231.537 68.164 231.877 67.7943 232.305 67.5219C232.733 67.2397 233.219 67.0354 233.764 66.8894C234.309 66.7435 234.883 66.6462 235.476 66.5878C236.176 66.5099 236.75 66.4418 237.178 66.3835C237.606 66.3154 237.917 66.2181 238.112 66.0916C238.306 65.9554 238.404 65.7705 238.404 65.5078V65.4591C238.404 64.9629 238.248 64.5737 237.937 64.3013C237.626 64.0288 237.178 63.8926 236.604 63.8926C236.001 63.8926 235.515 64.0288 235.165 64.2915C234.805 64.5542 234.571 64.8851 234.455 65.2937L231.352 65.0407C231.507 64.3013 231.819 63.6688 232.286 63.1239C232.752 62.5888 233.346 62.1704 234.075 61.8785C234.805 61.5866 235.661 61.4407 236.624 61.4407C237.295 61.4407 237.947 61.5185 238.559 61.6742C239.172 61.8299 239.727 62.0731 240.203 62.4039C240.68 62.7347 241.059 63.1629 241.341 63.6786C241.623 64.1942 241.759 64.817 241.759 65.537V73.7101H238.569V72.0268H238.472C238.277 72.4063 238.015 72.7371 237.694 73.029C237.373 73.3209 236.974 73.5349 236.517 73.7004C236.06 73.856 235.534 73.9436 234.931 73.9436L234.941 73.9339ZM235.904 71.6182C236.4 71.6182 236.838 71.5209 237.217 71.3263C237.596 71.1317 237.888 70.8592 238.112 70.5284C238.336 70.1976 238.433 69.8084 238.433 69.3803V68.0959C238.326 68.164 238.18 68.2224 238.005 68.2808C237.83 68.3392 237.616 68.3878 237.392 68.4267C237.168 68.4754 236.945 68.5143 236.711 68.5435C236.478 68.5727 236.283 68.6116 236.098 68.6311C235.7 68.6894 235.359 68.777 235.067 68.9035C234.776 69.03 234.542 69.1954 234.377 69.4095C234.211 69.6235 234.134 69.8862 234.134 70.1976C234.134 70.6549 234.299 71.0052 234.63 71.2387C234.96 71.4819 235.388 71.5987 235.904 71.5987V71.6182Z" fill="black"/>
<path d="M246.622 57.5486V73.7099H243.267V57.5486H246.622Z" fill="black"/>
<path d="M164.704 87.254L161.63 87.4389C161.581 87.1762 161.465 86.9427 161.29 86.7286C161.114 86.5145 160.891 86.3491 160.609 86.2129C160.327 86.0767 159.996 86.0183 159.607 86.0183C159.082 86.0183 158.644 86.1253 158.294 86.3491C157.934 86.5632 157.759 86.8551 157.759 87.2248C157.759 87.5167 157.875 87.76 158.109 87.9546C158.342 88.1589 158.741 88.3146 159.296 88.4313L161.484 88.8692C162.661 89.1124 163.536 89.5016 164.12 90.0368C164.694 90.5719 164.986 91.2822 164.986 92.1482C164.986 92.946 164.752 93.6368 164.285 94.2401C163.819 94.8433 163.186 95.3104 162.379 95.6412C161.572 95.972 160.638 96.1374 159.587 96.1374C157.982 96.1374 156.708 95.8066 155.755 95.1352C154.802 94.4639 154.247 93.5493 154.092 92.3914L157.399 92.2163C157.496 92.7028 157.739 93.0725 158.128 93.3352C158.508 93.5882 159.004 93.7147 159.607 93.7147C160.21 93.7147 160.667 93.5979 161.027 93.3741C161.387 93.1503 161.572 92.8487 161.572 92.4887C161.572 92.1871 161.435 91.9341 161.183 91.7395C160.93 91.5449 160.541 91.3892 160.015 91.2822L157.914 90.8638C156.728 90.6303 155.852 90.2119 155.278 89.6281C154.705 89.0443 154.413 88.3048 154.413 87.4C154.413 86.6216 154.627 85.9502 155.045 85.3859C155.463 84.8215 156.066 84.3934 156.835 84.0821C157.603 83.7707 158.508 83.6248 159.548 83.6248C161.076 83.6248 162.282 83.9458 163.167 84.5977C164.052 85.2496 164.558 86.1253 164.704 87.2443V87.254Z" fill="black"/>
<path d="M168.069 100.458C167.641 100.458 167.242 100.428 166.873 100.36C166.503 100.292 166.192 100.214 165.958 100.107L166.717 97.597C167.116 97.7137 167.466 97.7818 167.787 97.7916C168.108 97.8013 168.38 97.7332 168.614 97.5678C168.847 97.4121 169.042 97.1397 169.187 96.7602L169.382 96.2445L165.034 83.7805H168.565L171.074 92.6834H171.201L173.73 83.7805H177.29L172.582 97.2078C172.358 97.8597 172.047 98.4337 171.668 98.9202C171.288 99.4067 170.792 99.7862 170.209 100.049C169.615 100.312 168.915 100.448 168.079 100.448L168.069 100.458Z" fill="black"/>
<path d="M187.98 87.2538L184.906 87.4386C184.858 87.1759 184.741 86.9424 184.566 86.7284C184.391 86.5143 184.167 86.3489 183.885 86.2127C183.603 86.0765 183.272 86.0181 182.883 86.0181C182.358 86.0181 181.92 86.1251 181.57 86.3489C181.21 86.5629 181.035 86.8548 181.035 87.2246C181.035 87.5165 181.152 87.7597 181.385 87.9543C181.619 88.1586 182.018 88.3143 182.572 88.4311L184.76 88.8689C185.937 89.1122 186.813 89.5014 187.396 90.0365C187.97 90.5717 188.262 91.2819 188.262 92.1479C188.262 92.9458 188.029 93.6366 187.562 94.2398C187.095 94.8431 186.463 95.3101 185.655 95.6409C184.848 95.9718 183.914 96.1372 182.864 96.1372C181.259 96.1372 179.985 95.8064 179.031 95.135C178.078 94.4636 177.524 93.549 177.368 92.3912L180.675 92.216C180.773 92.7025 181.016 93.0722 181.405 93.335C181.784 93.5879 182.28 93.7144 182.883 93.7144C183.486 93.7144 183.943 93.5977 184.303 93.3739C184.663 93.1501 184.848 92.8485 184.848 92.4885C184.848 92.1868 184.712 91.9338 184.459 91.7392C184.206 91.5446 183.817 91.389 183.292 91.2819L181.191 90.8636C180.004 90.63 179.129 90.2117 178.555 89.6279C177.981 89.0441 177.689 88.3046 177.689 87.3997C177.689 86.6213 177.903 85.95 178.321 85.3856C178.74 84.8213 179.343 84.3932 180.111 84.0818C180.88 83.7705 181.784 83.6245 182.825 83.6245C184.352 83.6245 185.558 83.9456 186.443 84.5975C187.328 85.2494 187.834 86.1251 187.98 87.244V87.2538Z" fill="black"/>
<path d="M195.702 83.7999V86.3199H188.407V83.7999H195.702ZM190.061 80.9004H193.416V92.1968C193.416 92.5082 193.465 92.7514 193.562 92.9168C193.66 93.092 193.786 93.2087 193.961 93.2768C194.136 93.3449 194.331 93.3839 194.555 93.3839C194.71 93.3839 194.866 93.3644 195.031 93.3449C195.196 93.3255 195.313 93.2963 195.391 93.2768L195.916 95.7774C195.751 95.8261 195.508 95.8942 195.206 95.9623C194.905 96.0304 194.535 96.079 194.097 96.0888C193.29 96.118 192.58 96.0109 191.977 95.7677C191.374 95.5244 190.897 95.1352 190.557 94.6196C190.216 94.0941 190.051 93.4422 190.061 92.6444V80.9101V80.9004Z" fill="black"/>
<path d="M202.171 96.1567C200.926 96.1567 199.856 95.9038 198.961 95.3978C198.067 94.8918 197.376 94.1718 196.89 93.2378C196.403 92.3037 196.16 91.1945 196.16 89.9199C196.16 88.6453 196.403 87.575 196.89 86.6409C197.376 85.6971 198.057 84.9673 198.932 84.4419C199.817 83.9165 200.848 83.6538 202.035 83.6538C202.833 83.6538 203.582 83.7803 204.272 84.0333C204.963 84.2863 205.566 84.6754 206.081 85.1814C206.597 85.6874 207.005 86.3295 207.297 87.0982C207.589 87.8669 207.735 88.7717 207.735 89.8031V90.7275H197.502V88.6453H204.564C204.564 88.1588 204.457 87.7306 204.253 87.3609C204.049 86.9912 203.757 86.6993 203.377 86.4852C203.008 86.2712 202.58 86.1641 202.084 86.1641C201.588 86.1641 201.121 86.2809 200.732 86.5144C200.343 86.7479 200.031 87.0593 199.817 87.4485C199.594 87.8377 199.487 88.2755 199.477 88.7523V90.7372C199.477 91.3404 199.594 91.8561 199.808 92.294C200.031 92.7318 200.352 93.0626 200.761 93.3059C201.169 93.5394 201.656 93.6659 202.22 93.6659C202.59 93.6659 202.94 93.6172 203.241 93.5102C203.552 93.4032 203.815 93.2475 204.039 93.0334C204.263 92.8194 204.428 92.5664 204.545 92.2648L207.647 92.4691C207.492 93.2183 207.171 93.8702 206.684 94.4248C206.198 94.9794 205.576 95.4075 204.807 95.7189C204.039 96.0302 203.163 96.1762 202.162 96.1762L202.171 96.1567Z" fill="black"/>
<path d="M208.814 95.9134V83.7997H212.015V85.9403H212.16C212.413 85.23 212.832 84.6657 213.425 84.257C214.018 83.8484 214.719 83.644 215.536 83.644C216.353 83.644 217.072 83.8484 217.656 84.2668C218.24 84.6754 218.629 85.2397 218.823 85.9403H218.95C219.193 85.2495 219.64 84.6851 220.292 84.2765C220.944 83.8581 221.712 83.6538 222.597 83.6538C223.725 83.6538 224.65 84.0138 225.35 84.7338C226.06 85.4538 226.41 86.4657 226.41 87.7793V95.9329H223.054V88.4506C223.054 87.7793 222.879 87.2733 222.519 86.9328C222.159 86.5922 221.712 86.4268 221.177 86.4268C220.564 86.4268 220.088 86.6214 219.747 87.0106C219.407 87.3998 219.232 87.9057 219.232 88.5382V95.9426H215.973V88.3825C215.973 87.789 215.808 87.3122 215.467 86.9619C215.127 86.6117 214.68 86.4365 214.135 86.4365C213.765 86.4365 213.425 86.5338 213.133 86.7187C212.841 86.9036 212.598 87.1663 212.423 87.4971C212.248 87.8279 212.16 88.2268 212.16 88.6647V95.9426H208.805L208.814 95.9134Z" fill="black"/>
<path d="M21.1768 264.562V248.4H27.5478C28.7636 248.4 29.8141 248.614 30.67 249.052C31.5357 249.49 32.1971 250.103 32.6543 250.891C33.1114 251.679 33.3352 252.613 33.3352 253.684C33.3352 254.754 33.1017 255.678 32.6446 256.447C32.1874 257.216 31.5163 257.809 30.6409 258.218C29.7655 258.627 28.7052 258.831 27.4699 258.831H23.1999V256.087H26.9155C27.5672 256.087 28.1119 255.999 28.5399 255.815C28.9679 255.63 29.2888 255.367 29.5028 255.007C29.7168 254.647 29.8238 254.209 29.8238 253.674C29.8238 253.139 29.7168 252.682 29.5028 252.322C29.2888 251.952 28.9679 251.67 28.5302 251.485C28.0925 251.29 27.5478 251.193 26.8961 251.193H24.5908V264.562H21.1768ZM29.9016 257.206L33.9188 264.562H30.1448L26.2152 257.206H29.9016Z" fill="black"/>
<path d="M39.891 264.805C38.646 264.805 37.576 264.552 36.6812 264.046C35.7863 263.54 35.0957 262.82 34.6094 261.886C34.1231 260.952 33.8799 259.843 33.8799 258.568C33.8799 257.293 34.1231 256.223 34.6094 255.289C35.0957 254.345 35.7766 253.616 36.652 253.09C37.5371 252.565 38.5682 252.302 39.7548 252.302C40.5524 252.302 41.3014 252.429 41.992 252.681C42.6826 252.934 43.2856 253.324 43.8011 253.83C44.3167 254.336 44.7252 254.978 45.017 255.746C45.3088 256.515 45.4547 257.42 45.4547 258.451V259.376H35.2222V257.293H42.2838C42.2838 256.807 42.1768 256.379 41.9725 256.009C41.7683 255.639 41.4764 255.347 41.0971 255.133C40.7275 254.919 40.2995 254.812 39.8035 254.812C39.3074 254.812 38.8405 254.929 38.4514 255.163C38.0624 255.396 37.7511 255.707 37.5371 256.097C37.3134 256.486 37.2064 256.924 37.1967 257.4V259.385C37.1967 259.989 37.3134 260.504 37.5274 260.942C37.7511 261.38 38.0721 261.711 38.4806 261.954C38.8891 262.188 39.3755 262.314 39.9396 262.314C40.3092 262.314 40.6594 262.265 40.9609 262.158C41.2722 262.051 41.5348 261.896 41.7585 261.682C41.9822 261.468 42.1476 261.215 42.2643 260.913L45.3671 261.117C45.2115 261.867 44.8905 262.518 44.4042 263.073C43.9179 263.628 43.2953 264.056 42.5269 264.367C41.7585 264.678 40.8831 264.824 39.8813 264.824L39.891 264.805Z" fill="black"/>
<path d="M49.9878 264.795C49.2194 264.795 48.5288 264.659 47.9258 264.387C47.3227 264.114 46.8461 263.715 46.4959 263.18C46.1458 262.645 45.9707 261.984 45.9707 261.176C45.9707 260.505 46.0971 259.94 46.3403 259.483C46.5835 259.026 46.9239 258.656 47.3519 258.383C47.7799 258.101 48.2662 257.897 48.8109 257.751C49.3556 257.605 49.9295 257.508 50.5228 257.449C51.2231 257.372 51.797 257.303 52.225 257.245C52.653 257.177 52.9642 257.08 53.1587 256.953C53.3533 256.817 53.4505 256.632 53.4505 256.369V256.321C53.4505 255.824 53.2949 255.435 52.9837 255.163C52.6724 254.89 52.225 254.754 51.6511 254.754C51.0481 254.754 50.5617 254.89 50.2116 255.153C49.8517 255.416 49.6182 255.747 49.5015 256.155L46.3987 255.902C46.5543 255.163 46.8656 254.53 47.3324 253.986C47.7993 253.45 48.3927 253.032 49.1222 252.74C49.8517 252.448 50.7076 252.302 51.6706 252.302C52.3417 252.302 52.9934 252.38 53.6062 252.536C54.219 252.691 54.7734 252.935 55.25 253.266C55.7266 253.596 56.1059 254.024 56.388 254.54C56.6701 255.056 56.8063 255.679 56.8063 256.399V264.572H53.6159V262.888H53.5186C53.3241 263.268 53.0615 263.599 52.7405 263.891C52.4195 264.182 52.0207 264.397 51.5636 264.562C51.1064 264.718 50.5812 264.805 49.9781 264.805L49.9878 264.795ZM50.9508 262.48C51.4468 262.48 51.8845 262.382 52.2639 262.188C52.6432 261.993 52.935 261.721 53.1587 261.39C53.3825 261.059 53.4797 260.67 53.4797 260.242V258.958C53.3727 259.026 53.2268 259.084 53.0518 259.142C52.8767 259.201 52.6627 259.249 52.439 259.288C52.2153 259.337 51.9915 259.376 51.7581 259.405C51.5247 259.434 51.3301 259.473 51.1453 259.493C50.7465 259.551 50.4061 259.639 50.1143 259.765C49.8225 259.892 49.589 260.057 49.4237 260.271C49.2583 260.485 49.1805 260.748 49.1805 261.059C49.1805 261.516 49.3459 261.867 49.6766 262.1C50.0073 262.344 50.4353 262.46 50.9508 262.46V262.48Z" fill="black"/>
<path d="M61.6692 248.41V264.572H58.3135V248.41H61.6692Z" fill="black"/>
<path d="M70.7928 256.603V259.269H63.4297V256.603H70.7928Z" fill="black"/>
<path d="M78.9825 252.448V254.968H71.6875V252.448H78.9825ZM73.341 249.549H76.6968V260.845C76.6968 261.156 76.7454 261.4 76.8427 261.565C76.9399 261.74 77.0664 261.857 77.2415 261.925C77.4165 261.993 77.6111 262.032 77.8348 262.032C77.9904 262.032 78.146 262.013 78.3114 261.993C78.4767 261.974 78.5935 261.944 78.6713 261.925L79.1965 264.426C79.0312 264.474 78.788 264.542 78.4865 264.61C78.1849 264.679 77.8153 264.727 77.3776 264.737C76.5703 264.766 75.8603 264.659 75.2572 264.416C74.6541 264.173 74.1775 263.783 73.8371 263.268C73.4967 262.742 73.3313 262.09 73.341 261.293V249.558V249.549Z" fill="black"/>
<path d="M81.7544 250.891C81.2584 250.891 80.8304 250.726 80.4705 250.395C80.1106 250.064 79.9355 249.665 79.9355 249.198C79.9355 248.731 80.1106 248.332 80.4705 247.992C80.8304 247.661 81.2584 247.496 81.7447 247.496C82.2311 247.496 82.6785 247.661 83.0384 247.992C83.3885 248.323 83.5733 248.722 83.5733 249.189C83.5733 249.656 83.3983 250.055 83.0384 250.395C82.6785 250.726 82.2602 250.891 81.7544 250.891ZM80.062 264.572V252.458H83.4177V264.572H80.062Z" fill="black"/>
<path d="M84.9843 264.562V252.448H88.1844V254.589H88.3303C88.5832 253.878 89.0015 253.314 89.5948 252.905C90.1881 252.497 90.8885 252.292 91.7055 252.292C92.5225 252.292 93.2423 252.497 93.8259 252.915C94.4095 253.324 94.7986 253.888 94.9931 254.589H95.1196C95.3627 253.898 95.8102 253.334 96.4619 252.925C97.1136 252.507 97.882 252.302 98.7671 252.302C99.8954 252.302 100.819 252.662 101.52 253.382C102.23 254.102 102.58 255.114 102.58 256.428V264.581H99.2243V257.099C99.2243 256.428 99.0492 255.922 98.6893 255.581C98.3294 255.241 97.882 255.075 97.347 255.075C96.7342 255.075 96.2576 255.27 95.9172 255.659C95.5767 256.048 95.4017 256.554 95.4017 257.187V264.591H92.1432V257.031C92.1432 256.437 91.9778 255.961 91.6374 255.61C91.297 255.26 90.8496 255.085 90.3049 255.085C89.9352 255.085 89.5948 255.182 89.303 255.367C89.0112 255.552 88.768 255.815 88.593 256.146C88.4179 256.476 88.3303 256.875 88.3303 257.313V264.591H84.9746L84.9843 264.562Z" fill="black"/>
<path d="M109.651 264.805C108.406 264.805 107.336 264.552 106.441 264.046C105.546 263.54 104.855 262.82 104.369 261.886C103.883 260.952 103.64 259.843 103.64 258.568C103.64 257.294 103.883 256.223 104.369 255.289C104.855 254.346 105.536 253.616 106.412 253.09C107.297 252.565 108.328 252.302 109.515 252.302C110.312 252.302 111.061 252.429 111.752 252.682C112.442 252.935 113.045 253.324 113.561 253.83C114.076 254.336 114.485 254.978 114.777 255.747C115.069 256.515 115.214 257.42 115.214 258.452V259.376H104.982V257.294H112.044C112.044 256.807 111.937 256.379 111.732 256.009C111.528 255.64 111.236 255.348 110.857 255.134C110.487 254.92 110.059 254.813 109.563 254.813C109.067 254.813 108.6 254.929 108.211 255.163C107.822 255.396 107.511 255.708 107.297 256.097C107.073 256.486 106.966 256.924 106.956 257.401V259.386C106.956 259.989 107.073 260.505 107.287 260.942C107.511 261.38 107.832 261.711 108.24 261.954C108.649 262.188 109.135 262.314 109.699 262.314C110.069 262.314 110.419 262.266 110.721 262.159C111.032 262.052 111.295 261.896 111.518 261.682C111.742 261.468 111.907 261.215 112.024 260.913L115.127 261.118C114.971 261.867 114.65 262.519 114.164 263.073C113.678 263.628 113.055 264.056 112.287 264.367C111.518 264.679 110.643 264.825 109.641 264.825L109.651 264.805Z" fill="black"/>
<path d="M51.1346 286.98C50.2106 286.98 49.3838 286.736 48.6348 286.269C47.8859 285.802 47.3023 285.092 46.8646 284.158C46.4269 283.234 46.2129 282.095 46.2129 280.743C46.2129 279.39 46.4366 278.203 46.884 277.279C47.3315 276.355 47.9248 275.664 48.6737 275.206C49.4227 274.749 50.23 274.516 51.1249 274.516C51.8058 274.516 52.3699 274.632 52.8271 274.856C53.2842 275.09 53.6538 275.372 53.9262 275.712C54.1985 276.053 54.4222 276.384 54.5681 276.715H54.6751V270.643H58.0309V286.804H54.714V284.868H54.5681C54.4125 285.209 54.1888 285.54 53.897 285.87C53.6052 286.201 53.2356 286.474 52.7882 286.688C52.331 286.902 51.7766 287.009 51.1249 287.009L51.1346 286.98ZM52.1948 284.304C52.7395 284.304 53.1967 284.158 53.5663 283.856C53.9456 283.555 54.2277 283.146 54.432 282.601C54.6362 282.056 54.7335 281.434 54.7335 280.714C54.7335 279.994 54.6362 279.371 54.432 278.836C54.2277 278.301 53.9456 277.892 53.5663 277.6C53.1869 277.308 52.7298 277.162 52.1851 277.162C51.6404 277.162 51.1638 277.308 50.7844 277.61C50.4051 277.911 50.123 278.33 49.9285 278.855C49.734 279.381 49.6367 280.003 49.6367 280.704C49.6367 281.404 49.734 282.027 49.9285 282.572C50.123 283.107 50.4148 283.535 50.7844 283.837C51.1638 284.138 51.6209 284.294 52.1754 284.294L52.1948 284.304Z" fill="black"/>
<path d="M63.1177 287.009C62.3493 287.009 61.6587 286.873 61.0557 286.6C60.4526 286.328 59.976 285.929 59.6258 285.394C59.2757 284.859 59.1006 284.197 59.1006 283.389C59.1006 282.718 59.227 282.154 59.4702 281.696C59.7134 281.239 60.0538 280.869 60.4818 280.597C60.9098 280.315 61.3961 280.11 61.9408 279.964C62.4855 279.818 63.0594 279.721 63.6527 279.663C64.353 279.585 64.9269 279.517 65.3549 279.458C65.7828 279.39 66.0941 279.293 66.2886 279.167C66.4832 279.03 66.5804 278.845 66.5804 278.583V278.534C66.5804 278.038 66.4248 277.649 66.1135 277.376C65.8023 277.104 65.3549 276.968 64.781 276.968C64.1779 276.968 63.6916 277.104 63.3414 277.366C62.9815 277.629 62.7481 277.96 62.6314 278.369L59.5286 278.116C59.6842 277.376 59.9954 276.744 60.4623 276.199C60.9292 275.664 61.5225 275.245 62.252 274.953C62.9815 274.662 63.8375 274.516 64.8004 274.516C65.4716 274.516 66.1233 274.593 66.7361 274.749C67.3488 274.905 67.9033 275.148 68.3799 275.479C68.8565 275.81 69.2358 276.238 69.5179 276.753C69.8 277.269 69.9362 277.892 69.9362 278.612V286.785H66.7458V285.102H66.6485C66.454 285.481 66.1914 285.812 65.8704 286.104C65.5494 286.396 65.1506 286.61 64.6934 286.775C64.2363 286.931 63.7111 287.019 63.108 287.019L63.1177 287.009ZM64.0807 284.693C64.5767 284.693 65.0144 284.596 65.3938 284.401C65.7731 284.207 66.0649 283.934 66.2886 283.603C66.5123 283.273 66.6096 282.883 66.6096 282.455V281.171C66.5026 281.239 66.3567 281.297 66.1816 281.356C66.0066 281.414 65.7926 281.463 65.5689 281.502C65.3451 281.55 65.1214 281.589 64.888 281.618C64.6545 281.648 64.46 281.687 64.2752 281.706C63.8764 281.764 63.536 281.852 63.2442 281.978C62.9524 282.105 62.7189 282.27 62.5536 282.484C62.3882 282.698 62.3104 282.961 62.3104 283.273C62.3104 283.73 62.4758 284.08 62.8065 284.314C63.1372 284.557 63.5652 284.674 64.0807 284.674V284.693Z" fill="black"/>
<path d="M77.8829 274.661V277.182H70.5879V274.661H77.8829ZM72.2414 271.762H75.5972V283.058C75.5972 283.37 75.6458 283.613 75.7431 283.778C75.8403 283.954 75.9668 284.07 76.1418 284.138C76.3169 284.207 76.5115 284.245 76.7352 284.245C76.8908 284.245 77.0464 284.226 77.2118 284.207C77.3771 284.187 77.4939 284.158 77.5717 284.138L78.0969 286.639C77.9316 286.688 77.6884 286.756 77.3869 286.824C77.0853 286.892 76.7157 286.941 76.278 286.95C75.4707 286.98 74.7607 286.873 74.1576 286.629C73.5545 286.386 73.0779 285.997 72.7375 285.481C72.3971 284.956 72.2317 284.304 72.2414 283.506V271.772V271.762Z" fill="black"/>
<path d="M82.4156 287.009C81.6472 287.009 80.9566 286.872 80.3535 286.6C79.7505 286.327 79.2738 285.929 78.9237 285.393C78.5735 284.858 78.3984 284.197 78.3984 283.389C78.3984 282.718 78.5249 282.153 78.7681 281.696C79.0112 281.239 79.3517 280.869 79.7796 280.597C80.2076 280.314 80.6939 280.11 81.2386 279.964C81.7833 279.818 82.3572 279.721 82.9505 279.663C83.6509 279.585 84.2247 279.517 84.6527 279.458C85.0807 279.39 85.3919 279.293 85.5865 279.166C85.781 279.03 85.8783 278.845 85.8783 278.582V278.534C85.8783 278.038 85.7227 277.648 85.4114 277.376C85.1001 277.104 84.6527 276.967 84.0788 276.967C83.4758 276.967 82.9894 277.104 82.6393 277.366C82.2794 277.629 82.046 277.96 81.9292 278.368L78.8264 278.115C78.982 277.376 79.2933 276.744 79.7602 276.199C80.2271 275.664 80.8204 275.245 81.5499 274.953C82.2794 274.661 83.1354 274.515 84.0983 274.515C84.7694 274.515 85.4211 274.593 86.0339 274.749C86.6467 274.905 87.2011 275.148 87.6777 275.479C88.1543 275.809 88.5337 276.238 88.8158 276.753C89.0978 277.269 89.234 277.892 89.234 278.612V286.785H86.0436V285.102H85.9464C85.7518 285.481 85.4892 285.812 85.1682 286.104C84.8473 286.396 84.4485 286.61 83.9913 286.775C83.5341 286.931 83.0089 287.018 82.4058 287.018L82.4156 287.009ZM83.3785 284.693C83.8746 284.693 84.3123 284.596 84.6916 284.401C85.071 284.206 85.3628 283.934 85.5865 283.603C85.8102 283.272 85.9075 282.883 85.9075 282.455V281.171C85.8005 281.239 85.6546 281.297 85.4795 281.356C85.3044 281.414 85.0904 281.463 84.8667 281.501C84.643 281.55 84.4193 281.589 84.1858 281.618C83.9524 281.647 83.7579 281.686 83.5731 281.706C83.1743 281.764 82.8338 281.852 82.542 281.978C82.2502 282.105 82.0168 282.27 81.8514 282.484C81.6861 282.698 81.6083 282.961 81.6083 283.272C81.6083 283.73 81.7736 284.08 82.1043 284.313C82.435 284.557 82.863 284.673 83.3785 284.673V284.693Z" fill="black"/>
<path d="M273.547 272.19V256.029H279.918C281.143 256.029 282.184 256.262 283.05 256.729C283.916 257.196 284.567 257.839 285.024 258.666C285.482 259.493 285.705 260.436 285.705 261.507C285.705 262.577 285.472 263.531 285.015 264.348C284.548 265.165 283.886 265.807 283.011 266.265C282.136 266.722 281.075 266.955 279.84 266.955H275.774V264.221H279.286C279.947 264.221 280.482 264.105 280.91 263.881C281.338 263.657 281.659 263.336 281.873 262.927C282.087 262.519 282.194 262.052 282.194 261.516C282.194 260.981 282.087 260.514 281.873 260.106C281.659 259.707 281.338 259.395 280.91 259.172C280.482 258.948 279.937 258.841 279.266 258.841H276.961V272.21H273.547V272.19Z" fill="black"/>
<path d="M286.756 272.19V260.076H290.014V262.188H290.141C290.364 261.438 290.734 260.864 291.25 260.485C291.765 260.105 292.368 259.901 293.049 259.901C293.214 259.901 293.399 259.911 293.594 259.93C293.788 259.95 293.963 259.979 294.109 260.018V262.995C293.954 262.947 293.73 262.908 293.458 262.869C293.176 262.83 292.923 262.81 292.689 262.81C292.193 262.81 291.755 262.917 291.366 263.131C290.977 263.345 290.676 263.637 290.452 264.017C290.228 264.396 290.121 264.834 290.121 265.33V272.19H286.766H286.756Z" fill="black"/>
<path d="M299.633 272.433C298.408 272.433 297.348 272.171 296.462 271.645C295.568 271.12 294.887 270.39 294.4 269.456C293.914 268.522 293.671 267.432 293.671 266.187C293.671 264.941 293.914 263.842 294.4 262.898C294.887 261.964 295.568 261.224 296.462 260.709C297.357 260.183 298.408 259.921 299.633 259.921C300.859 259.921 301.919 260.183 302.804 260.709C303.699 261.234 304.38 261.964 304.866 262.898C305.353 263.832 305.596 264.932 305.596 266.187C305.596 267.442 305.353 268.522 304.866 269.456C304.38 270.39 303.699 271.129 302.804 271.645C301.909 272.161 300.859 272.433 299.633 272.433ZM299.653 269.826C300.207 269.826 300.674 269.67 301.053 269.349C301.433 269.028 301.705 268.6 301.9 268.045C302.094 267.491 302.191 266.868 302.191 266.158C302.191 265.447 302.094 264.825 301.9 264.27C301.705 263.715 301.423 263.277 301.053 262.956C300.684 262.635 300.217 262.48 299.653 262.48C299.089 262.48 298.622 262.635 298.233 262.956C297.853 263.277 297.562 263.715 297.377 264.27C297.192 264.825 297.085 265.447 297.085 266.158C297.085 266.868 297.182 267.491 297.377 268.045C297.571 268.6 297.853 269.028 298.233 269.349C298.612 269.67 299.089 269.826 299.653 269.826Z" fill="black"/>
<path d="M312.152 272.433C310.907 272.433 309.847 272.171 308.952 271.645C308.057 271.12 307.376 270.38 306.899 269.436C306.423 268.493 306.189 267.413 306.189 266.187C306.189 264.961 306.433 263.852 306.909 262.917C307.396 261.983 308.076 261.244 308.962 260.719C309.847 260.193 310.907 259.921 312.132 259.921C313.193 259.921 314.117 260.115 314.905 260.495C315.702 260.874 316.325 261.419 316.792 262.11C317.258 262.801 317.511 263.618 317.56 264.552H314.389C314.302 263.949 314.068 263.462 313.679 263.093C313.3 262.723 312.804 262.538 312.181 262.538C311.656 262.538 311.208 262.674 310.819 262.956C310.43 263.239 310.129 263.647 309.915 264.182C309.701 264.718 309.594 265.369 309.594 266.128C309.594 266.887 309.701 267.559 309.915 268.104C310.129 268.648 310.43 269.057 310.819 269.339C311.208 269.621 311.666 269.767 312.181 269.767C312.56 269.767 312.911 269.689 313.222 269.534C313.533 269.378 313.786 269.145 313.99 268.843C314.195 268.541 314.321 268.172 314.389 267.753H317.56C317.511 268.678 317.258 269.495 316.811 270.195C316.364 270.896 315.741 271.451 314.953 271.84C314.165 272.239 313.232 272.433 312.152 272.433Z" fill="black"/>
<path d="M324.125 272.433C322.88 272.433 321.81 272.18 320.916 271.674C320.021 271.168 319.33 270.448 318.844 269.514C318.357 268.58 318.114 267.471 318.114 266.196C318.114 264.922 318.357 263.852 318.844 262.917C319.33 261.974 320.011 261.244 320.886 260.719C321.772 260.193 322.803 259.93 323.989 259.93C324.787 259.93 325.536 260.057 326.226 260.31C326.917 260.563 327.52 260.952 328.036 261.458C328.551 261.964 328.96 262.606 329.251 263.375C329.543 264.143 329.689 265.048 329.689 266.08V267.004H319.457V264.922H326.518C326.518 264.435 326.411 264.007 326.207 263.638C326.003 263.268 325.711 262.976 325.331 262.762C324.962 262.548 324.534 262.441 324.038 262.441C323.542 262.441 323.075 262.557 322.686 262.791C322.297 263.025 321.986 263.336 321.772 263.725C321.548 264.114 321.441 264.552 321.431 265.029V267.014C321.431 267.617 321.548 268.133 321.762 268.571C321.985 269.008 322.306 269.339 322.715 269.582C323.124 269.816 323.61 269.942 324.174 269.942C324.544 269.942 324.894 269.894 325.195 269.787C325.507 269.68 325.769 269.524 325.993 269.31C326.217 269.096 326.382 268.843 326.499 268.541L329.602 268.746C329.446 269.495 329.125 270.147 328.639 270.701C328.152 271.256 327.53 271.684 326.761 271.995C325.993 272.307 325.118 272.453 324.116 272.453L324.125 272.433Z" fill="black"/>
<path d="M340.856 263.531L337.782 263.715C337.734 263.453 337.617 263.219 337.442 263.005C337.267 262.791 337.043 262.626 336.761 262.489C336.479 262.353 336.148 262.295 335.759 262.295C335.234 262.295 334.796 262.402 334.446 262.626C334.086 262.84 333.911 263.132 333.911 263.501C333.911 263.793 334.028 264.037 334.261 264.231C334.495 264.435 334.894 264.591 335.448 264.708L337.636 265.146C338.813 265.389 339.689 265.778 340.272 266.313C340.846 266.849 341.138 267.559 341.138 268.425C341.138 269.223 340.905 269.913 340.438 270.517C339.971 271.12 339.339 271.587 338.531 271.918C337.724 272.249 336.79 272.414 335.74 272.414C334.135 272.414 332.861 272.083 331.907 271.412C330.954 270.74 330.4 269.826 330.244 268.668L333.551 268.493C333.649 268.979 333.892 269.349 334.281 269.612C334.66 269.865 335.156 269.991 335.759 269.991C336.362 269.991 336.819 269.875 337.179 269.651C337.539 269.427 337.724 269.125 337.724 268.765C337.724 268.464 337.588 268.211 337.335 268.016C337.082 267.822 336.693 267.666 336.168 267.559L334.067 267.14C332.88 266.907 332.005 266.488 331.431 265.905C330.857 265.321 330.565 264.581 330.565 263.677C330.565 262.898 330.779 262.227 331.197 261.662C331.616 261.098 332.219 260.67 332.987 260.359C333.755 260.047 334.66 259.901 335.701 259.901C337.228 259.901 338.434 260.222 339.319 260.874C340.204 261.526 340.71 262.402 340.856 263.521V263.531Z" fill="black"/>
<path d="M352.216 263.531L349.143 263.715C349.094 263.453 348.977 263.219 348.802 263.005C348.627 262.791 348.403 262.626 348.121 262.489C347.839 262.353 347.509 262.295 347.12 262.295C346.594 262.295 346.157 262.402 345.806 262.626C345.447 262.84 345.271 263.132 345.271 263.501C345.271 263.793 345.388 264.037 345.622 264.231C345.855 264.435 346.254 264.591 346.808 264.708L348.997 265.146C350.174 265.389 351.049 265.778 351.633 266.313C352.207 266.849 352.498 267.559 352.498 268.425C352.498 269.223 352.265 269.913 351.798 270.517C351.331 271.12 350.699 271.587 349.892 271.918C349.084 272.249 348.151 272.414 347.1 272.414C345.495 272.414 344.221 272.083 343.268 271.412C342.315 270.74 341.76 269.826 341.604 268.668L344.912 268.493C345.009 268.979 345.252 269.349 345.641 269.612C346.02 269.865 346.516 269.991 347.12 269.991C347.723 269.991 348.18 269.875 348.54 269.651C348.9 269.427 349.084 269.125 349.084 268.765C349.084 268.464 348.948 268.211 348.695 268.016C348.442 267.822 348.053 267.666 347.528 267.559L345.427 267.14C344.24 266.907 343.365 266.488 342.791 265.905C342.217 265.321 341.925 264.581 341.925 263.677C341.925 262.898 342.139 262.227 342.558 261.662C342.976 261.098 343.579 260.67 344.347 260.359C345.116 260.047 346.02 259.901 347.061 259.901C348.588 259.901 349.794 260.222 350.68 260.874C351.565 261.526 352.07 262.402 352.216 263.521V263.531Z" fill="black"/>
<path d="M165.132 300.29H164.004L166.533 293.265H167.758L170.287 300.29H169.159L167.175 294.54H167.116L165.132 300.29ZM165.317 297.537H168.965V298.432H165.317V297.537Z" fill="black"/>
<path d="M177.048 295.552H175.978C175.939 295.328 175.861 295.123 175.745 294.948C175.628 294.773 175.492 294.627 175.336 294.501C175.171 294.384 174.996 294.287 174.791 294.228C174.587 294.17 174.383 294.141 174.159 294.141C173.751 294.141 173.391 294.238 173.07 294.442C172.749 294.647 172.496 294.948 172.311 295.338C172.126 295.727 172.039 296.213 172.039 296.778C172.039 297.342 172.126 297.828 172.311 298.227C172.496 298.616 172.749 298.918 173.07 299.122C173.391 299.327 173.751 299.424 174.149 299.424C174.373 299.424 174.577 299.395 174.782 299.337C174.986 299.278 175.161 299.191 175.326 299.064C175.492 298.938 175.628 298.801 175.735 298.626C175.842 298.451 175.929 298.256 175.968 298.033H177.038C176.98 298.383 176.873 298.694 176.708 298.986C176.542 299.278 176.338 299.521 176.085 299.735C175.832 299.94 175.54 300.105 175.21 300.222C174.879 300.339 174.529 300.397 174.14 300.397C173.527 300.397 172.992 300.251 172.515 299.959C172.039 299.667 171.669 299.259 171.387 298.714C171.115 298.179 170.979 297.527 170.979 296.787C170.979 296.048 171.115 295.396 171.387 294.851C171.659 294.316 172.039 293.897 172.515 293.606C172.992 293.314 173.527 293.168 174.14 293.168C174.509 293.168 174.859 293.216 175.18 293.323C175.501 293.43 175.793 293.586 176.056 293.79C176.309 293.995 176.523 294.248 176.698 294.54C176.863 294.832 176.98 295.172 177.038 295.542L177.048 295.552Z" fill="black"/>
<path d="M184.381 295.552H183.311C183.272 295.328 183.194 295.123 183.078 294.948C182.961 294.773 182.825 294.627 182.669 294.501C182.504 294.384 182.329 294.287 182.124 294.228C181.92 294.17 181.716 294.141 181.492 294.141C181.084 294.141 180.724 294.238 180.403 294.442C180.082 294.647 179.829 294.948 179.644 295.338C179.459 295.727 179.372 296.213 179.372 296.778C179.372 297.342 179.459 297.828 179.644 298.227C179.829 298.616 180.082 298.918 180.403 299.122C180.724 299.327 181.084 299.424 181.482 299.424C181.706 299.424 181.91 299.395 182.115 299.337C182.319 299.278 182.494 299.191 182.659 299.064C182.825 298.938 182.961 298.801 183.068 298.626C183.175 298.451 183.262 298.256 183.301 298.033H184.371C184.313 298.383 184.206 298.694 184.041 298.986C183.875 299.278 183.671 299.521 183.418 299.735C183.165 299.94 182.873 300.105 182.543 300.222C182.212 300.339 181.862 300.397 181.473 300.397C180.86 300.397 180.325 300.251 179.848 299.959C179.372 299.667 179.002 299.259 178.72 298.714C178.448 298.179 178.312 297.527 178.312 296.787C178.312 296.048 178.448 295.396 178.72 294.851C178.992 294.316 179.372 293.897 179.848 293.606C180.325 293.314 180.86 293.168 181.473 293.168C181.842 293.168 182.192 293.216 182.513 293.323C182.834 293.43 183.126 293.586 183.389 293.79C183.642 293.995 183.856 294.248 184.031 294.54C184.196 294.832 184.313 295.172 184.371 295.542L184.381 295.552Z" fill="black"/>
<path d="M190.412 293.265H191.472V297.887C191.472 298.373 191.355 298.811 191.122 299.191C190.888 299.57 190.567 299.862 190.149 300.086C189.731 300.3 189.244 300.407 188.68 300.407C188.116 300.407 187.63 300.3 187.212 300.086C186.793 299.872 186.472 299.57 186.239 299.191C186.005 298.811 185.889 298.373 185.889 297.887V293.265H186.949V297.799C186.949 298.12 187.017 298.403 187.163 298.646C187.309 298.889 187.503 299.084 187.766 299.23C188.019 299.366 188.33 299.444 188.68 299.444C189.03 299.444 189.342 299.376 189.604 299.23C189.867 299.084 190.061 298.899 190.198 298.646C190.334 298.393 190.402 298.12 190.402 297.799V293.265H190.412Z" fill="black"/>
<path d="M193.262 300.29V293.265H195.761C196.306 293.265 196.754 293.362 197.113 293.547C197.473 293.732 197.746 293.995 197.921 294.326C198.096 294.657 198.193 295.036 198.193 295.474C198.193 295.912 198.106 296.281 197.921 296.612C197.736 296.943 197.473 297.186 197.113 297.371C196.754 297.556 196.306 297.644 195.761 297.644H193.865V296.729H195.664C196.005 296.729 196.287 296.68 196.501 296.583C196.715 296.486 196.87 296.34 196.977 296.155C197.075 295.97 197.133 295.746 197.133 295.484C197.133 295.221 197.084 294.987 196.977 294.793C196.88 294.598 196.715 294.452 196.501 294.345C196.287 294.238 196.005 294.189 195.654 294.189H194.322V300.31H193.262V300.29ZM196.724 297.118L198.456 300.29H197.25L195.548 297.118H196.724Z" fill="black"/>
<path d="M200.324 300.29H199.195L201.724 293.265H202.95L205.479 300.29H204.35L202.366 294.54H202.308L200.324 300.29ZM200.508 297.537H204.156V298.432H200.508V297.537Z" fill="black"/>
<path d="M212.229 295.552H211.159C211.12 295.328 211.042 295.123 210.925 294.948C210.809 294.773 210.672 294.627 210.517 294.501C210.351 294.384 210.176 294.287 209.972 294.228C209.768 294.17 209.564 294.141 209.34 294.141C208.931 294.141 208.571 294.238 208.25 294.442C207.929 294.647 207.677 294.948 207.492 295.338C207.307 295.727 207.219 296.213 207.219 296.778C207.219 297.342 207.307 297.828 207.492 298.227C207.677 298.616 207.929 298.918 208.25 299.122C208.571 299.327 208.931 299.424 209.33 299.424C209.554 299.424 209.758 299.395 209.962 299.337C210.167 299.278 210.342 299.191 210.507 299.064C210.672 298.938 210.809 298.801 210.916 298.626C211.023 298.451 211.11 298.256 211.149 298.033H212.219C212.161 298.383 212.054 298.694 211.888 298.986C211.723 299.278 211.519 299.521 211.266 299.735C211.013 299.94 210.721 300.105 210.39 300.222C210.06 300.339 209.709 300.397 209.32 300.397C208.708 300.397 208.173 300.251 207.696 299.959C207.219 299.667 206.85 299.259 206.568 298.714C206.295 298.179 206.159 297.527 206.159 296.787C206.159 296.048 206.295 295.396 206.568 294.851C206.84 294.316 207.219 293.897 207.696 293.606C208.173 293.314 208.708 293.168 209.32 293.168C209.69 293.168 210.04 293.216 210.361 293.323C210.682 293.43 210.974 293.586 211.237 293.79C211.489 293.995 211.703 294.248 211.878 294.54C212.044 294.832 212.161 295.172 212.219 295.542L212.229 295.552Z" fill="black"/>
<path d="M213.202 293.265H214.408L216.247 296.457H216.324L218.163 293.265H219.369L216.82 297.537V300.29H215.76V297.537L213.212 293.265H213.202Z" fill="black"/>
<path d="M239.25 177.032V170.007H243.656V170.921H240.31V173.062H243.423V173.967H240.31V176.117H243.695V177.032H239.25Z" fill="black"/>
<path d="M245.31 177.032V170.007H249.667V170.921H246.37V173.062H249.356V173.967H246.37V177.032H245.31Z" fill="black"/>
<path d="M251.214 177.032V170.007H255.571V170.921H252.274V173.062H255.26V173.967H252.274V177.032H251.214Z" fill="black"/>
<path d="M258.169 170.007V177.032H257.108V170.007H258.169Z" fill="black"/>
<path d="M265.784 172.293H264.714C264.675 172.069 264.598 171.865 264.481 171.69C264.364 171.515 264.228 171.369 264.072 171.242C263.907 171.126 263.732 171.028 263.528 170.97C263.323 170.912 263.119 170.882 262.895 170.882C262.487 170.882 262.127 170.98 261.806 171.184C261.485 171.388 261.232 171.69 261.047 172.079C260.863 172.468 260.775 172.955 260.775 173.519C260.775 174.084 260.863 174.57 261.047 174.969C261.232 175.358 261.485 175.66 261.806 175.864C262.127 176.068 262.487 176.166 262.886 176.166C263.109 176.166 263.314 176.137 263.518 176.078C263.722 176.02 263.897 175.932 264.063 175.806C264.228 175.679 264.364 175.543 264.471 175.368C264.578 175.193 264.666 174.998 264.705 174.774H265.775C265.716 175.125 265.609 175.436 265.444 175.728C265.279 176.02 265.074 176.263 264.821 176.477C264.568 176.681 264.277 176.847 263.946 176.964C263.615 177.08 263.265 177.139 262.876 177.139C262.263 177.139 261.728 176.993 261.252 176.701C260.775 176.409 260.405 176 260.123 175.455C259.851 174.92 259.715 174.268 259.715 173.529C259.715 172.789 259.851 172.138 260.123 171.593C260.396 171.058 260.775 170.639 261.252 170.347C261.728 170.055 262.263 169.909 262.876 169.909C263.246 169.909 263.596 169.958 263.917 170.065C264.238 170.172 264.53 170.328 264.792 170.532C265.045 170.736 265.259 170.989 265.434 171.281C265.6 171.573 265.716 171.914 265.775 172.284L265.784 172.293Z" fill="black"/>
<path d="M268.362 170.007V177.032H267.302V170.007H268.362Z" fill="black"/>
<path d="M270.142 177.032V170.007H274.548V170.921H271.202V173.062H274.314V173.967H271.202V176.117H274.587V177.032H270.142Z" fill="black"/>
<path d="M281.873 170.007V177.032H280.9L277.33 171.885H277.262V177.032H276.202V170.007H277.185L280.754 175.164H280.822V170.007H281.873Z" fill="black"/>
<path d="M289.488 172.293H288.418C288.38 172.069 288.302 171.865 288.185 171.69C288.068 171.515 287.932 171.369 287.777 171.242C287.611 171.126 287.436 171.028 287.232 170.97C287.028 170.912 286.823 170.882 286.6 170.882C286.191 170.882 285.831 170.98 285.51 171.184C285.189 171.388 284.936 171.69 284.752 172.079C284.567 172.468 284.479 172.955 284.479 173.519C284.479 174.084 284.567 174.57 284.752 174.969C284.936 175.358 285.189 175.66 285.51 175.864C285.831 176.068 286.191 176.166 286.59 176.166C286.814 176.166 287.018 176.137 287.222 176.078C287.426 176.02 287.601 175.932 287.767 175.806C287.932 175.679 288.068 175.543 288.175 175.368C288.282 175.193 288.37 174.998 288.409 174.774H289.479C289.42 175.125 289.313 175.436 289.148 175.728C288.983 176.02 288.778 176.263 288.525 176.477C288.273 176.681 287.981 176.847 287.65 176.964C287.319 177.08 286.969 177.139 286.58 177.139C285.967 177.139 285.432 176.993 284.956 176.701C284.479 176.409 284.11 176 283.827 175.455C283.555 174.92 283.419 174.268 283.419 173.529C283.419 172.789 283.555 172.138 283.827 171.593C284.1 171.058 284.479 170.639 284.956 170.347C285.432 170.055 285.967 169.909 286.58 169.909C286.95 169.909 287.3 169.958 287.621 170.065C287.942 170.172 288.234 170.328 288.496 170.532C288.749 170.736 288.963 170.989 289.138 171.281C289.304 171.573 289.42 171.914 289.479 172.284L289.488 172.293Z" fill="black"/>
<path d="M290.461 170.007H291.667L293.505 173.198H293.583L295.422 170.007H296.628L294.079 174.278V177.032H293.019V174.278L290.471 170.007H290.461Z" fill="black"/>
<path d="M162.273 207.301C162.234 206.98 162.088 206.727 161.825 206.542C161.563 206.358 161.222 206.27 160.823 206.27C160.532 206.27 160.288 206.319 160.074 206.406C159.86 206.494 159.705 206.62 159.588 206.776C159.471 206.932 159.413 207.107 159.413 207.311C159.413 207.477 159.452 207.622 159.53 207.739C159.608 207.856 159.715 207.963 159.841 208.041C159.967 208.119 160.113 208.187 160.259 208.245C160.405 208.294 160.551 208.342 160.687 208.381L161.378 208.557C161.602 208.615 161.835 208.683 162.068 208.78C162.302 208.878 162.526 208.994 162.72 209.15C162.915 209.306 163.08 209.491 163.206 209.714C163.333 209.938 163.391 210.211 163.391 210.532C163.391 210.931 163.284 211.281 163.08 211.592C162.876 211.904 162.584 212.147 162.195 212.322C161.806 212.497 161.339 212.594 160.794 212.594C160.249 212.594 159.812 212.507 159.432 212.341C159.053 212.176 158.752 211.933 158.528 211.631C158.314 211.32 158.187 210.96 158.168 210.532H159.228C159.248 210.785 159.335 210.999 159.481 211.164C159.627 211.33 159.812 211.456 160.035 211.534C160.259 211.612 160.512 211.651 160.784 211.651C161.086 211.651 161.349 211.602 161.582 211.505C161.815 211.407 162 211.281 162.136 211.106C162.273 210.931 162.341 210.736 162.341 210.503C162.341 210.298 162.282 210.123 162.166 209.987C162.049 209.851 161.884 209.744 161.689 209.656C161.485 209.568 161.261 209.491 161.008 209.422L160.181 209.199C159.617 209.043 159.17 208.819 158.849 208.527C158.518 208.235 158.353 207.837 158.353 207.35C158.353 206.941 158.46 206.591 158.683 206.289C158.907 205.988 159.199 205.754 159.578 205.589C159.958 205.424 160.376 205.336 160.843 205.336C161.31 205.336 161.738 205.424 162.107 205.589C162.477 205.754 162.759 205.988 162.973 206.28C163.187 206.572 163.294 206.902 163.304 207.282H162.282L162.273 207.301Z" fill="black"/>
<path d="M170.735 207.749H169.665C169.626 207.525 169.548 207.321 169.431 207.146C169.314 206.971 169.178 206.825 169.023 206.698C168.857 206.581 168.682 206.484 168.478 206.426C168.274 206.367 168.069 206.338 167.846 206.338C167.437 206.338 167.077 206.436 166.756 206.64C166.435 206.844 166.182 207.146 165.998 207.535C165.813 207.924 165.725 208.411 165.725 208.975C165.725 209.539 165.813 210.026 165.998 210.425C166.182 210.814 166.435 211.116 166.756 211.32C167.077 211.524 167.437 211.622 167.836 211.622C168.06 211.622 168.264 211.592 168.468 211.534C168.672 211.476 168.848 211.388 169.013 211.262C169.178 211.135 169.314 210.999 169.421 210.824C169.528 210.649 169.616 210.454 169.655 210.23H170.725C170.666 210.58 170.559 210.892 170.394 211.184C170.229 211.476 170.024 211.719 169.772 211.933C169.519 212.137 169.227 212.303 168.896 212.419C168.565 212.536 168.215 212.595 167.826 212.595C167.213 212.595 166.678 212.449 166.202 212.157C165.725 211.865 165.356 211.456 165.074 210.911C164.801 210.376 164.665 209.724 164.665 208.985C164.665 208.245 164.801 207.593 165.074 207.049C165.346 206.513 165.725 206.095 166.202 205.803C166.678 205.511 167.213 205.365 167.826 205.365C168.196 205.365 168.546 205.414 168.867 205.521C169.188 205.628 169.48 205.784 169.742 205.988C169.995 206.192 170.209 206.445 170.384 206.737C170.55 207.029 170.666 207.37 170.725 207.739L170.735 207.749Z" fill="black"/>
<path d="M172.787 212.487H171.659L174.188 205.462H175.414L177.943 212.487H176.814L174.83 206.737H174.772L172.787 212.487ZM172.972 209.734H176.62V210.629H172.972V209.734Z" fill="black"/>
<path d="M179.197 212.487V205.462H180.257V211.573H183.438V212.487H179.197Z" fill="black"/>
<path d="M185.83 212.487H184.702L187.231 205.462H188.457L190.986 212.487H189.857L187.873 206.737H187.815L185.83 212.487ZM186.015 209.734H189.663V210.629H186.015V209.734Z" fill="black"/>
<path d="M192.231 212.487V205.462H194.799C195.295 205.462 195.714 205.54 196.035 205.706C196.356 205.871 196.608 206.085 196.764 206.367C196.929 206.649 197.007 206.961 197.007 207.301C197.007 207.593 196.949 207.836 196.842 208.041C196.735 208.245 196.589 208.401 196.414 208.518C196.239 208.634 196.035 208.722 195.821 208.78V208.848C196.054 208.858 196.278 208.936 196.501 209.072C196.725 209.208 196.91 209.403 197.056 209.656C197.202 209.909 197.28 210.22 197.28 210.58C197.28 210.94 197.192 211.261 197.027 211.544C196.861 211.826 196.599 212.05 196.248 212.215C195.898 212.38 195.451 212.468 194.906 212.468H192.212L192.231 212.487ZM193.292 208.498H194.712C194.945 208.498 195.159 208.449 195.354 208.362C195.548 208.274 195.694 208.138 195.811 207.973C195.928 207.807 195.976 207.613 195.976 207.389C195.976 207.097 195.879 206.854 195.675 206.659C195.47 206.465 195.159 206.367 194.741 206.367H193.292V208.508V208.498ZM193.292 211.573H194.819C195.324 211.573 195.694 211.475 195.908 211.281C196.122 211.086 196.239 210.833 196.239 210.541C196.239 210.318 196.18 210.113 196.073 209.928C195.966 209.744 195.801 209.598 195.597 209.491C195.393 209.384 195.149 209.325 194.858 209.325H193.292V211.573Z" fill="black"/>
<path d="M199.857 205.462V212.487H198.797V205.462H199.857Z" fill="black"/>
<path d="M201.637 212.487V205.462H202.697V211.573H205.878V212.487H201.637Z" fill="black"/>
<path d="M208.387 205.462V212.487H207.327V205.462H208.387Z" fill="black"/>
<path d="M209.826 206.377V205.462H215.263V206.377H213.075V212.487H212.015V206.377H209.826Z" fill="black"/>
<path d="M216.158 205.462H217.364L219.203 208.654H219.28L221.119 205.462H222.325L219.777 209.734V212.487H218.716V209.734L216.168 205.462H216.158Z" fill="black"/>
<path d="M91.8615 172.293H90.7915C90.7526 172.069 90.6748 171.865 90.5581 171.69C90.4414 171.515 90.3052 171.369 90.1496 171.242C89.9842 171.125 89.8091 171.028 89.6049 170.97C89.4006 170.911 89.1963 170.882 88.9726 170.882C88.5641 170.882 88.2042 170.979 87.8832 171.184C87.5622 171.388 87.3094 171.69 87.1245 172.079C86.9397 172.468 86.8522 172.955 86.8522 173.519C86.8522 174.083 86.9397 174.57 87.1245 174.969C87.3094 175.358 87.5622 175.66 87.8832 175.864C88.2042 176.068 88.5641 176.166 88.9629 176.166C89.1866 176.166 89.3909 176.136 89.5951 176.078C89.7994 176.02 89.9745 175.932 90.1398 175.806C90.3052 175.679 90.4414 175.543 90.5484 175.368C90.6554 175.193 90.7429 174.998 90.7818 174.774H91.8517C91.7934 175.124 91.6864 175.436 91.521 175.728C91.3557 176.02 91.1514 176.263 90.8985 176.477C90.6456 176.681 90.3538 176.847 90.0231 176.963C89.6924 177.08 89.3422 177.139 88.9532 177.139C88.3404 177.139 87.8054 176.993 87.3288 176.701C86.8522 176.409 86.4826 176 86.2005 175.455C85.9282 174.92 85.792 174.268 85.792 173.529C85.792 172.789 85.9282 172.137 86.2005 171.592C86.4729 171.057 86.8522 170.639 87.3288 170.347C87.8054 170.055 88.3404 169.909 88.9532 169.909C89.3228 169.909 89.673 169.958 89.9939 170.065C90.3149 170.172 90.6067 170.328 90.8693 170.532C91.1222 170.736 91.3362 170.989 91.5113 171.281C91.6767 171.573 91.7934 171.914 91.8517 172.283L91.8615 172.293Z" fill="black"/>
<path d="M93.9232 177.031H92.7949L95.3239 170.006H96.5494L99.0784 177.031H97.9501L95.9658 171.281H95.9075L93.9232 177.031ZM94.108 174.278H97.7555V175.173H94.108V174.278Z" fill="black"/>
<path d="M100.333 177.031V170.006H102.833C103.377 170.006 103.835 170.104 104.195 170.308C104.554 170.512 104.817 170.775 105.002 171.125C105.177 171.466 105.274 171.855 105.274 172.283C105.274 172.711 105.187 173.1 105.002 173.451C104.817 173.801 104.554 174.064 104.195 174.268C103.835 174.472 103.387 174.57 102.843 174.57H101.121V173.675H102.745C103.086 173.675 103.368 173.616 103.582 173.499C103.796 173.383 103.951 173.217 104.058 173.003C104.165 172.789 104.214 172.556 104.214 172.293C104.214 172.03 104.165 171.797 104.058 171.583C103.961 171.378 103.796 171.213 103.582 171.096C103.368 170.979 103.086 170.921 102.726 170.921H101.393V177.041H100.333V177.031Z" fill="black"/>
<path d="M106.587 177.031H105.459L107.988 170.006H109.213L111.742 177.031H110.614L108.63 171.281H108.572L106.587 177.031ZM106.772 174.278H110.42V175.173H106.772V174.278Z" fill="black"/>
<path d="M112.998 177.031V170.006H115.566C116.062 170.006 116.48 170.084 116.801 170.25C117.122 170.415 117.375 170.629 117.531 170.911C117.696 171.193 117.774 171.505 117.774 171.845C117.774 172.137 117.715 172.38 117.608 172.585C117.501 172.789 117.356 172.945 117.18 173.062C117.005 173.178 116.801 173.266 116.587 173.324V173.392C116.821 173.402 117.044 173.48 117.268 173.616C117.492 173.752 117.677 173.947 117.822 174.2C117.968 174.453 118.046 174.764 118.046 175.124C118.046 175.484 117.959 175.805 117.793 176.088C117.628 176.37 117.365 176.593 117.015 176.759C116.665 176.924 116.218 177.012 115.673 177.012H112.979L112.998 177.031ZM114.058 173.042H115.478C115.712 173.042 115.926 172.993 116.12 172.906C116.315 172.818 116.461 172.682 116.577 172.517C116.694 172.351 116.743 172.157 116.743 171.933C116.743 171.641 116.645 171.398 116.441 171.203C116.237 171.009 115.926 170.911 115.507 170.911H114.058V173.052V173.042ZM114.058 176.117H115.585C116.091 176.117 116.461 176.019 116.675 175.825C116.889 175.63 117.005 175.377 117.005 175.085C117.005 174.862 116.947 174.657 116.84 174.472C116.733 174.288 116.568 174.142 116.363 174.035C116.159 173.927 115.916 173.869 115.624 173.869H114.058V176.117Z" fill="black"/>
<path d="M120.614 170.006V177.031H119.554V170.006H120.614Z" fill="black"/>
<path d="M122.394 177.031V170.006H123.454V176.117H126.634V177.031H122.394Z" fill="black"/>
<path d="M129.144 170.006V177.031H128.084V170.006H129.144Z" fill="black"/>
<path d="M130.584 170.921V170.006H136.021V170.921H133.833V177.031H132.772V170.921H130.584Z" fill="black"/>
<path d="M136.916 170.006H138.122L139.96 173.198H140.038L141.877 170.006H143.083L140.534 174.278V177.031H139.474V174.278L136.926 170.006H136.916Z" fill="black"/>
</svg>
