<svg width="583" height="568" viewBox="0 0 583 568" fill="none" xmlns="http://www.w3.org/2000/svg">
<g filter="url(#filter0_d_129_2168)">
<path d="M491.123 207.013C521.203 207.013 545.639 231.353 545.749 261.475C545.859 291.663 521.488 316.227 491.318 316.333C491.253 316.333 491.184 316.333 491.115 316.333C461.034 316.333 436.598 291.993 436.488 261.871C436.378 231.683 460.749 207.119 490.919 207.013C490.984 207.013 491.053 207.013 491.123 207.013ZM491.123 205.257H490.911C475.848 205.31 461.71 211.23 451.103 221.925C440.495 232.621 434.676 246.808 434.733 261.879C434.786 276.913 440.678 291.035 451.322 301.645C461.963 312.251 476.093 318.093 491.115 318.093H491.322C506.385 318.04 520.523 312.12 531.131 301.425C541.742 290.73 547.557 276.543 547.5 261.471C547.447 246.437 541.555 232.315 530.911 221.705C520.27 211.1 506.14 205.257 491.123 205.257Z" fill="#F5A405"/>
<path d="M454.038 325.782C465.106 325.782 476.28 329.135 485.943 336.111C510.416 353.765 515.95 387.929 498.306 412.416C487.629 427.235 470.909 435.115 453.949 435.115C442.881 435.115 431.707 431.761 422.044 424.786C397.571 407.132 392.037 372.968 409.681 348.48C420.358 333.662 437.078 325.786 454.038 325.782ZM454.038 324.026C445.283 324.026 436.528 326.092 428.718 330.003C420.647 334.045 413.57 340.079 408.256 347.45C399.448 359.673 395.922 374.597 398.332 389.473C400.743 404.349 408.798 417.395 421.014 426.208C430.681 433.179 442.066 436.867 453.945 436.867C462.699 436.867 471.454 434.801 479.265 430.889C487.335 426.848 494.413 420.813 499.727 413.443C508.535 401.22 512.061 386.295 509.65 371.419C507.24 356.544 499.185 343.497 486.969 334.685C477.302 327.713 465.916 324.026 454.038 324.026Z" fill="#F5A405"/>
<path d="M352.798 398.697C375.753 398.697 397.119 413.288 404.685 436.296C414.111 464.972 398.52 495.868 369.86 505.3C364.196 507.166 358.438 508.05 352.782 508.05C329.828 508.05 308.462 493.46 300.896 470.452C291.469 441.776 307.061 410.88 335.72 401.448C341.384 399.582 347.142 398.697 352.798 398.697ZM352.798 396.941C346.821 396.941 340.892 397.899 335.166 399.781C320.861 404.491 309.24 414.49 302.452 427.944C295.663 441.397 294.515 456.688 299.222 471.002C303.005 482.512 310.205 492.303 320.043 499.311C329.681 506.176 341.002 509.806 352.774 509.806C358.748 509.806 364.677 508.853 370.402 506.967C384.707 502.257 396.329 492.258 403.117 478.804C409.905 465.351 411.053 450.059 406.346 435.746C402.563 424.236 395.364 414.445 385.53 407.437C375.891 400.572 364.575 396.941 352.798 396.941Z" fill="#F5A405"/>
<path d="M283.5 141.801C288.45 138.943 294.55 138.943 299.5 141.801L391.753 195.064C396.704 197.922 399.753 203.204 399.753 208.92V315.445C399.753 321.161 396.704 326.443 391.753 329.301L299.5 382.564C294.55 385.422 288.45 385.422 283.5 382.564L191.247 329.301C186.296 326.443 183.247 321.161 183.247 315.445V208.92C183.247 203.204 186.296 197.922 191.247 195.064L283.5 141.801Z" fill="#F4A321"/>
<path d="M229.725 399.573C235.255 399.573 240.883 400.421 246.433 402.201C275.161 411.426 290.977 442.208 281.758 470.953C274.318 494.144 252.854 508.926 229.754 508.926C224.224 508.926 218.596 508.079 213.046 506.298C184.318 497.074 168.502 466.292 177.721 437.547C185.161 414.355 206.624 399.573 229.725 399.573ZM229.725 397.817C217.875 397.817 206.502 401.488 196.827 408.435C186.956 415.521 179.773 425.401 176.051 437.009C171.45 451.359 172.708 466.642 179.594 480.043C186.48 493.444 198.171 503.361 212.513 507.969C218.12 509.77 223.922 510.682 229.754 510.682C241.603 510.682 252.977 507.011 262.652 500.065C272.522 492.979 279.706 483.099 283.427 471.491C288.029 457.141 286.771 441.858 279.885 428.457C272.999 415.056 261.308 405.139 246.966 400.531C241.359 398.73 235.56 397.817 229.725 397.817Z" fill="#F5A405"/>
<path d="M129.104 325.782C145.93 325.782 162.527 333.531 173.229 348.159C191.052 372.519 185.763 406.72 161.42 424.554C151.692 431.68 140.392 435.115 129.194 435.115C112.368 435.115 95.7702 427.365 85.0688 412.738C67.2454 388.377 72.535 354.176 96.8778 336.343C106.606 329.217 117.906 325.782 129.104 325.782ZM129.104 324.026C117.075 324.026 105.576 327.795 95.8394 334.925C83.6884 343.827 75.7275 356.931 73.4227 371.823C71.1179 386.715 74.7543 401.615 83.6477 413.773C88.9739 421.05 96.0267 427.002 104.049 430.983C111.81 434.833 120.504 436.871 129.185 436.871C141.214 436.871 152.714 433.102 162.45 425.972C174.601 417.069 182.562 403.966 184.867 389.074C187.167 374.182 183.535 359.282 174.642 347.124C169.316 339.847 162.263 333.894 154.241 329.917C146.479 326.067 137.786 324.03 129.104 324.03V324.026Z" fill="#F5A405"/>
<path d="M91.8902 209.201C121.97 209.201 146.407 233.541 146.517 263.663C146.627 293.851 122.256 318.415 92.0857 318.521C92.0205 318.521 91.9513 318.521 91.8821 318.521C61.8018 318.521 37.3654 294.181 37.2554 264.059C37.1455 233.871 61.5167 209.307 91.6866 209.201C91.7517 209.201 91.821 209.201 91.8902 209.201ZM91.8902 207.445H91.6785C76.6159 207.498 62.4777 213.418 51.87 224.113C41.2623 234.809 35.4474 249 35.5004 264.067C35.5533 279.101 41.4456 293.223 52.0899 303.833C62.7302 314.439 76.8602 320.281 91.8821 320.281H92.0897C107.152 320.228 121.29 314.308 131.898 303.613C142.506 292.918 148.325 278.731 148.268 263.659C148.215 248.625 142.323 234.503 131.678 223.893C121.038 213.288 106.908 207.445 91.8902 207.445Z" fill="#F5A405"/>
<path d="M128.921 90.485C128.62 90.485 128.318 90.485 128.017 90.4932C127.532 90.5013 127.146 90.9006 127.154 91.3855C127.162 91.8663 127.553 92.2492 128.029 92.2492C128.029 92.2492 128.037 92.2492 128.041 92.2492C128.208 92.2492 128.371 92.2452 128.538 92.2452C128.538 92.2452 128.554 92.2452 128.563 92.2452C128.571 92.2452 128.579 92.2452 128.583 92.2452C128.583 92.2452 128.587 92.2452 128.591 92.2452C128.599 92.2452 128.603 92.2452 128.607 92.2452C128.607 92.2452 128.611 92.2452 128.616 92.2452C128.62 92.2452 128.628 92.2452 128.632 92.2452C128.652 92.2452 128.673 92.2452 128.693 92.2452C128.693 92.2452 128.709 92.2452 128.713 92.2452C128.721 92.2452 128.725 92.2452 128.734 92.2452H128.738C128.738 92.2452 128.75 92.2452 128.758 92.2452H128.762C128.762 92.2452 128.774 92.2452 128.782 92.2452H128.787C128.787 92.2452 128.799 92.2452 128.807 92.2452H128.811C128.811 92.2452 128.823 92.2452 128.831 92.2452H128.835C128.835 92.2452 128.848 92.2452 128.856 92.2452H128.905C128.954 92.2452 128.998 92.2452 129.047 92.2329C129.092 92.2411 129.141 92.2452 129.19 92.2452C129.23 92.2452 129.271 92.2452 129.316 92.2452C129.316 92.2452 129.332 92.2452 129.34 92.2452C129.34 92.2452 129.344 92.2452 129.349 92.2452C129.353 92.2452 129.357 92.2452 129.361 92.2452C129.365 92.2452 129.373 92.2452 129.377 92.2452C129.377 92.2452 129.385 92.2452 129.389 92.2452C129.393 92.2452 129.401 92.2452 129.406 92.2452C129.406 92.2452 129.41 92.2452 129.414 92.2452C129.422 92.2452 129.43 92.2452 129.438 92.2452H129.442C129.442 92.2452 129.458 92.2452 129.467 92.2452C129.475 92.2452 129.483 92.2452 129.491 92.2452C129.491 92.2452 129.507 92.2452 129.515 92.2452C129.515 92.2452 129.532 92.2452 129.54 92.2452C129.556 92.2452 129.577 92.2452 129.593 92.2452C129.593 92.2452 129.609 92.2452 129.621 92.2452C129.65 92.2452 129.674 92.2452 129.703 92.2452C129.731 92.2452 129.756 92.2452 129.784 92.2452C129.878 92.2452 129.967 92.2452 130.061 92.2492C130.065 92.2492 130.073 92.2492 130.077 92.2492C130.554 92.2492 130.945 91.8703 130.953 91.3895C130.965 90.9047 130.578 90.5054 130.094 90.4932C129.792 90.485 129.491 90.481 129.19 90.481H129.186C129.137 90.481 129.092 90.481 129.043 90.4932C128.994 90.485 128.945 90.481 128.897 90.481L128.921 90.485ZM120.048 91.1981C120.003 91.1981 119.954 91.198 119.905 91.2103C119.608 91.2592 119.311 91.3081 119.014 91.361C118.537 91.4466 118.22 91.9029 118.305 92.3796C118.382 92.8034 118.749 93.1049 119.168 93.1049C119.217 93.1049 119.27 93.1008 119.319 93.0926C119.445 93.0723 119.572 93.0478 119.698 93.0275C119.706 93.0275 119.714 93.0275 119.722 93.0234C119.73 93.0234 119.738 93.0234 119.747 93.0193C119.755 93.0193 119.763 93.0193 119.771 93.0152C119.808 93.0112 119.844 93.003 119.881 92.9989C119.881 92.9989 119.897 92.9989 119.905 92.9949H119.909C119.909 92.9949 119.922 92.9949 119.93 92.9908C119.93 92.9908 119.934 92.9908 119.938 92.9908C119.946 92.9908 119.95 92.9908 119.958 92.9908C119.958 92.9908 119.962 92.9908 119.966 92.9908H119.987C119.987 92.9908 119.991 92.9908 119.995 92.9867C120.003 92.9867 120.007 92.9867 120.015 92.9867C120.015 92.9867 120.019 92.9867 120.024 92.9867C120.032 92.9867 120.036 92.9867 120.044 92.9867C120.044 92.9867 120.048 92.9867 120.052 92.9867C120.06 92.9867 120.068 92.9867 120.072 92.9867C120.072 92.9867 120.072 92.9867 120.076 92.9867C120.097 92.9867 120.109 92.9826 120.129 92.9786C120.129 92.9786 120.129 92.9786 120.133 92.9786C120.142 92.9786 120.146 92.9786 120.154 92.9786C120.154 92.9786 120.158 92.9786 120.162 92.9786C120.17 92.9786 120.174 92.9786 120.178 92.9786C120.655 92.9011 120.98 92.4489 120.903 91.9722C120.834 91.5403 120.459 91.2347 120.04 91.2347L120.048 91.1981ZM111.399 93.3127C111.309 93.3127 111.216 93.329 111.122 93.3575C110.837 93.4512 110.548 93.549 110.263 93.6508C109.807 93.8097 109.562 94.3109 109.725 94.7672C109.852 95.1298 110.189 95.358 110.552 95.358C110.65 95.358 110.743 95.3417 110.841 95.3091C110.894 95.2928 110.943 95.2725 110.996 95.2562C111.224 95.1787 111.448 95.1013 111.676 95.028C112.132 94.8732 112.38 94.3802 112.23 93.9197C112.107 93.5531 111.765 93.3167 111.399 93.3167V93.3127ZM103.198 96.78C103.059 96.78 102.921 96.8126 102.795 96.8778C102.526 97.0163 102.261 97.1589 101.997 97.3015C101.569 97.5337 101.41 98.0634 101.642 98.4912C101.801 98.7846 102.102 98.9516 102.416 98.9516C102.558 98.9516 102.701 98.919 102.831 98.8457C102.872 98.8253 102.913 98.8009 102.953 98.7805C102.962 98.7805 102.966 98.7724 102.974 98.7683C102.974 98.7683 102.974 98.7683 102.978 98.7683C102.982 98.7683 102.99 98.7601 102.994 98.7601C102.994 98.7601 102.998 98.7601 103.002 98.7561C103.006 98.7561 103.015 98.752 103.019 98.7479C103.019 98.7479 103.027 98.7479 103.027 98.7438C103.027 98.7438 103.035 98.7398 103.039 98.7357C103.039 98.7357 103.047 98.7357 103.051 98.7316C103.055 98.7316 103.059 98.7316 103.063 98.7235C103.067 98.7235 103.072 98.7194 103.076 98.7153C103.076 98.7153 103.084 98.7153 103.084 98.7113C103.088 98.7113 103.092 98.7072 103.096 98.7031C103.096 98.7031 103.1 98.7031 103.104 98.7031C103.108 98.7031 103.116 98.699 103.12 98.695C103.157 98.6746 103.194 98.6542 103.23 98.6379C103.238 98.6379 103.243 98.6298 103.251 98.6257C103.251 98.6257 103.263 98.6175 103.271 98.6135C103.271 98.6135 103.283 98.6053 103.291 98.6012C103.291 98.6012 103.304 98.5931 103.312 98.589C103.385 98.5483 103.458 98.5116 103.532 98.4709C103.532 98.4709 103.572 98.4505 103.593 98.4383C104.024 98.2142 104.191 97.6845 103.967 97.2526C103.813 96.9511 103.507 96.78 103.19 96.78H103.198ZM95.6563 101.519C95.4731 101.519 95.2898 101.576 95.131 101.694C94.8908 101.873 94.6505 102.056 94.4103 102.244C94.0275 102.541 93.9583 103.091 94.2515 103.474C94.4225 103.698 94.6831 103.816 94.9478 103.816C95.1351 103.816 95.3224 103.755 95.4853 103.633C95.5667 103.568 95.6522 103.507 95.7337 103.442C95.7378 103.442 95.7418 103.433 95.7459 103.433C95.7459 103.433 95.7459 103.433 95.75 103.429C95.7541 103.425 95.7622 103.421 95.7663 103.417C95.7744 103.413 95.7785 103.409 95.7866 103.401C95.9169 103.299 96.0472 103.201 96.1816 103.103C96.5685 102.814 96.6499 102.264 96.3567 101.877C96.1857 101.645 95.921 101.527 95.6522 101.527L95.6563 101.519ZM88.9781 107.41C88.7501 107.41 88.518 107.5 88.347 107.679C88.1393 107.895 87.9316 108.115 87.724 108.335C87.3941 108.689 87.4104 109.244 87.7647 109.574C87.9357 109.733 88.1475 109.81 88.3633 109.81C88.5994 109.81 88.8316 109.716 89.0026 109.533C89.0311 109.504 89.0596 109.472 89.0881 109.443C89.0881 109.443 89.1003 109.431 89.1044 109.427C89.1085 109.423 89.1125 109.415 89.1207 109.411C89.1207 109.411 89.1207 109.411 89.1247 109.407C89.1288 109.402 89.1329 109.398 89.137 109.394C89.137 109.394 89.137 109.39 89.141 109.39C89.1451 109.386 89.1492 109.382 89.1532 109.378C89.1532 109.378 89.1573 109.374 89.1614 109.37C89.1614 109.37 89.1695 109.362 89.1736 109.358L89.1818 109.35C89.1818 109.35 89.1858 109.345 89.1899 109.341C89.1899 109.341 89.198 109.333 89.2021 109.329C89.2021 109.329 89.2021 109.325 89.2062 109.321C89.2103 109.317 89.2143 109.309 89.2225 109.305C89.2225 109.305 89.2225 109.305 89.2225 109.301C89.3487 109.166 89.4749 109.036 89.6012 108.901C89.9351 108.551 89.9229 107.997 89.5767 107.663C89.4057 107.5 89.1858 107.418 88.9659 107.418L88.9781 107.41ZM83.3261 114.296C83.0492 114.296 82.7764 114.426 82.6054 114.671C82.4344 114.919 82.2633 115.168 82.0964 115.416C81.8276 115.82 81.9335 116.366 82.3326 116.635C82.4832 116.736 82.6542 116.785 82.8212 116.785C83.1022 116.785 83.3791 116.651 83.5501 116.398C83.5501 116.398 83.5501 116.398 83.5501 116.394C83.5501 116.39 83.5582 116.386 83.5582 116.382C83.5582 116.382 83.5582 116.378 83.5623 116.374C83.5664 116.37 83.5705 116.362 83.5745 116.358C83.5867 116.341 83.5949 116.329 83.603 116.313C83.6071 116.305 83.6112 116.3 83.6193 116.292C83.6356 116.268 83.6478 116.247 83.6641 116.223C83.6641 116.223 83.6723 116.211 83.6763 116.203C83.6804 116.195 83.6845 116.19 83.6885 116.182C83.7008 116.166 83.7089 116.154 83.7171 116.137C83.7171 116.137 83.7171 116.137 83.7171 116.133C83.7171 116.129 83.7252 116.121 83.7293 116.117C83.7293 116.117 83.7293 116.113 83.7333 116.109C83.7333 116.105 83.7415 116.097 83.7415 116.093C83.7415 116.093 83.7415 116.089 83.7456 116.085C83.7496 116.08 83.7496 116.076 83.7537 116.068C83.7537 116.068 83.7578 116.06 83.7618 116.056C83.7618 116.052 83.77 116.048 83.77 116.044C83.77 116.044 83.7741 116.036 83.7781 116.032C83.7781 116.032 83.7822 116.027 83.7863 116.023C83.7863 116.023 83.7903 116.015 83.7944 116.011C83.7944 116.011 83.7944 116.007 83.7985 116.003C83.7985 115.999 83.8026 115.995 83.8066 115.991V115.987C83.8148 115.979 83.8189 115.966 83.827 115.958C83.827 115.958 83.8351 115.946 83.8351 115.942C83.8351 115.942 83.8351 115.938 83.8392 115.934C83.8392 115.93 83.8433 115.926 83.8474 115.922C83.8474 115.922 83.8474 115.917 83.8514 115.913L83.8596 115.901C83.8596 115.901 83.8596 115.897 83.8636 115.893C83.8677 115.885 83.8718 115.877 83.8799 115.873C83.8799 115.873 83.884 115.864 83.8881 115.864C83.8881 115.864 83.8921 115.856 83.8962 115.856C83.8962 115.852 83.9003 115.848 83.9044 115.844C83.9044 115.844 83.9044 115.84 83.9084 115.836L83.9207 115.82C83.9207 115.82 83.9207 115.82 83.9207 115.816C83.9532 115.771 83.9817 115.726 84.0143 115.681C84.2912 115.282 84.1935 114.736 83.7944 114.463C83.6397 114.357 83.4687 114.304 83.2936 114.304L83.3261 114.296ZM78.8347 121.984C78.5089 121.984 78.1953 122.168 78.0447 122.481C77.9144 122.754 77.7841 123.027 77.6578 123.3C77.4542 123.74 77.6456 124.262 78.0854 124.466C78.2035 124.523 78.3297 124.547 78.4519 124.547C78.7817 124.547 79.0993 124.36 79.2459 124.042C79.3681 123.773 79.4943 123.508 79.6246 123.239C79.8323 122.803 79.6491 122.282 79.2134 122.07C79.0912 122.009 78.9609 121.984 78.8347 121.984ZM75.6299 130.296C75.2512 130.296 74.9011 130.545 74.787 130.923C74.7015 131.213 74.6201 131.502 74.5386 131.795C74.4083 132.264 74.6812 132.745 75.1494 132.875C75.2268 132.896 75.3083 132.908 75.3856 132.908C75.7684 132.908 76.1227 132.655 76.2285 132.264C76.3059 131.983 76.3873 131.702 76.4688 131.421C76.6072 130.956 76.3426 130.467 75.8743 130.329C75.7928 130.304 75.7073 130.292 75.6259 130.292L75.6299 130.296ZM73.8057 139.015C73.37 139.015 72.9913 139.341 72.9383 139.781C72.9017 140.083 72.865 140.38 72.8324 140.682C72.7795 141.162 73.1256 141.598 73.6102 141.651C73.6428 141.651 73.6754 141.655 73.7079 141.655C74.1477 141.655 74.5305 141.321 74.5794 140.873C74.5997 140.694 74.6201 140.519 74.6404 140.339C74.6404 140.339 74.6404 140.339 74.6404 140.335V140.319C74.6404 140.319 74.6404 140.315 74.6404 140.311V140.299C74.6404 140.299 74.6404 140.282 74.6404 140.278C74.6404 140.278 74.6404 140.278 74.6404 140.274C74.6404 140.266 74.6404 140.258 74.6404 140.25C74.6404 140.242 74.6404 140.234 74.6404 140.225C74.6486 140.152 74.6567 140.079 74.6689 140.005C74.726 139.525 74.388 139.089 73.9075 139.027C73.8708 139.023 73.8342 139.019 73.7975 139.019L73.8057 139.015ZM73.4025 147.914C73.4025 147.914 73.3822 147.914 73.37 147.914C72.8854 147.93 72.5067 148.338 72.523 148.822C72.5352 149.124 72.5474 149.425 72.5596 149.727C72.584 150.195 72.9709 150.562 73.4351 150.562C73.4514 150.562 73.4636 150.562 73.4799 150.562C73.9645 150.538 74.335 150.126 74.3106 149.645C74.2984 149.417 74.2902 149.189 74.278 148.957C74.278 148.949 74.278 148.941 74.278 148.936C74.278 148.936 74.278 148.936 74.278 148.932C74.278 148.924 74.278 148.916 74.278 148.908V148.9C74.278 148.896 74.278 148.892 74.278 148.888V148.871C74.278 148.871 74.278 148.871 74.278 148.863C74.278 148.831 74.278 148.802 74.278 148.769C74.2617 148.297 73.8708 147.922 73.4025 147.922V147.914ZM74.4205 156.763C74.3635 156.763 74.3065 156.767 74.2495 156.78C73.7731 156.873 73.4636 157.334 73.5573 157.81C73.6143 158.108 73.6754 158.401 73.7405 158.699C73.8301 159.11 74.1925 159.391 74.5956 159.391C74.6567 159.391 74.7178 159.383 74.7789 159.371C75.2512 159.269 75.5567 158.805 75.4548 158.328C75.3938 158.039 75.3327 157.753 75.2798 157.464C75.1983 157.049 74.8318 156.759 74.4205 156.759V156.763ZM76.8312 165.34C76.7294 165.34 76.6276 165.356 76.5258 165.393C76.0697 165.56 75.8376 166.065 76.0086 166.522C76.1145 166.803 76.2204 167.088 76.3303 167.369C76.4647 167.715 76.7986 167.931 77.1488 167.931C77.2547 167.931 77.3606 167.911 77.4664 167.87C77.9184 167.695 78.1424 167.19 77.9673 166.738C77.9225 166.619 77.8736 166.497 77.8289 166.375C77.8289 166.367 77.8248 166.359 77.8207 166.35V166.342C77.8207 166.342 77.8126 166.334 77.8126 166.326C77.8126 166.322 77.8126 166.318 77.8085 166.314C77.8085 166.314 77.8085 166.31 77.8085 166.306C77.8004 166.289 77.7963 166.269 77.7881 166.253C77.7433 166.139 77.7026 166.024 77.6578 165.91C77.5275 165.556 77.1895 165.336 76.8353 165.336L76.8312 165.34ZM80.5816 173.42C80.435 173.42 80.2884 173.456 80.1499 173.534C79.7264 173.774 79.5798 174.308 79.8201 174.731C79.9667 174.992 80.1214 175.257 80.2721 175.518C80.435 175.795 80.7282 175.95 81.0295 175.95C81.1802 175.95 81.3349 175.909 81.4733 175.828C81.8928 175.583 82.0312 175.045 81.7869 174.626C81.7869 174.626 81.7869 174.621 81.7869 174.617C81.7869 174.613 81.7869 174.609 81.7788 174.605C81.7788 174.605 81.7788 174.601 81.7747 174.597C81.6362 174.361 81.5019 174.124 81.3634 173.888C81.3634 173.888 81.3553 173.872 81.3512 173.868C81.1883 173.583 80.891 173.424 80.5856 173.424L80.5816 173.42ZM85.578 180.794C85.3866 180.794 85.1911 180.859 85.0283 180.986C84.6496 181.291 84.5885 181.841 84.8939 182.22C85.0812 182.457 85.2726 182.689 85.468 182.921C85.6431 183.129 85.8915 183.239 86.144 183.239C86.3435 183.239 86.539 183.174 86.7059 183.035C87.0806 182.725 87.1294 182.171 86.82 181.801C86.8159 181.797 86.8118 181.788 86.8077 181.784C86.8077 181.784 86.8077 181.784 86.8077 181.78C86.8037 181.776 86.7996 181.768 86.7955 181.764C86.7915 181.756 86.7833 181.752 86.7792 181.744C86.7752 181.739 86.767 181.731 86.7629 181.727C86.7629 181.727 86.7629 181.727 86.7629 181.723C86.7589 181.719 86.7548 181.715 86.7507 181.707C86.7507 181.707 86.7507 181.707 86.7507 181.703C86.7385 181.691 86.7304 181.678 86.7182 181.662C86.7182 181.662 86.7182 181.662 86.7141 181.658C86.7141 181.654 86.7059 181.65 86.7019 181.646C86.7019 181.646 86.7019 181.642 86.6978 181.638C86.6937 181.634 86.6897 181.629 86.6856 181.621C86.6856 181.621 86.6856 181.621 86.6856 181.617C86.6815 181.613 86.6734 181.605 86.6693 181.597C86.6693 181.597 86.6693 181.593 86.6652 181.589C86.6652 181.585 86.6571 181.581 86.653 181.576L86.6449 181.568C86.6449 181.568 86.6408 181.56 86.6367 181.556C86.6367 181.556 86.6326 181.552 86.6286 181.548C86.6245 181.544 86.6204 181.536 86.6164 181.532C86.6164 181.532 86.6123 181.528 86.6082 181.524C86.6082 181.519 86.6041 181.519 86.6001 181.515C86.6001 181.515 86.596 181.507 86.5919 181.507C86.5919 181.507 86.5878 181.499 86.5838 181.499C86.5838 181.499 86.5797 181.491 86.5756 181.491C86.5756 181.491 86.5716 181.483 86.5675 181.483C86.5634 181.479 86.5593 181.471 86.5512 181.466C86.5512 181.466 86.5471 181.462 86.5431 181.458C86.5431 181.458 86.539 181.45 86.5349 181.446C86.5349 181.446 86.5349 181.442 86.5308 181.438C86.5308 181.438 86.5227 181.43 86.5227 181.426C86.5227 181.426 86.5186 181.422 86.5186 181.418C86.5105 181.409 86.5064 181.401 86.4983 181.393C86.4983 181.393 86.4901 181.385 86.4901 181.381C86.4901 181.381 86.4901 181.377 86.486 181.373C86.486 181.373 86.4779 181.365 86.4779 181.361C86.4779 181.361 86.4779 181.356 86.4738 181.352C86.4738 181.352 86.4657 181.344 86.4657 181.34C86.4657 181.34 86.4657 181.336 86.4616 181.336C86.4535 181.328 86.4494 181.32 86.4413 181.312C86.4413 181.312 86.4413 181.308 86.4372 181.304C86.4372 181.304 86.429 181.295 86.429 181.291C86.429 181.291 86.429 181.291 86.425 181.283L86.4168 181.271C86.4168 181.271 86.4168 181.267 86.4128 181.267L86.3924 181.242C86.3924 181.242 86.3924 181.238 86.3883 181.238C86.3883 181.238 86.3802 181.23 86.3802 181.226C86.3802 181.226 86.3802 181.222 86.3761 181.218C86.3761 181.218 86.368 181.21 86.368 181.206C86.368 181.206 86.3639 181.198 86.3598 181.198C86.3557 181.189 86.3476 181.185 86.3435 181.177C86.3435 181.177 86.3395 181.173 86.3395 181.169C86.3395 181.169 86.3354 181.161 86.3313 181.157C86.3313 181.157 86.3272 181.153 86.3232 181.149C86.3232 181.149 86.3191 181.141 86.315 181.136C86.315 181.136 86.3109 181.128 86.3069 181.128C86.3069 181.128 86.3069 181.124 86.3028 181.12C86.1277 180.904 85.8752 180.79 85.6187 180.79L85.578 180.794ZM91.6983 187.268C91.458 187.268 91.2178 187.366 91.0468 187.558C90.721 187.916 90.7536 188.474 91.1119 188.796C91.3359 189 91.5639 189.2 91.7879 189.395C91.9548 189.542 92.1584 189.611 92.362 189.611C92.6063 189.611 92.8507 189.509 93.0258 189.31C93.3434 188.943 93.3067 188.393 92.9443 188.075C92.7244 187.884 92.5005 187.684 92.2847 187.488C92.1177 187.338 91.906 187.264 91.6983 187.264V187.268ZM98.7674 192.683C98.4783 192.683 98.1973 192.826 98.0303 193.083C97.7656 193.49 97.8837 194.032 98.2909 194.297C98.5434 194.46 98.7999 194.623 99.0565 194.782C99.199 194.871 99.3619 194.916 99.5207 194.916C99.8139 194.916 100.099 194.769 100.266 194.505C100.522 194.093 100.396 193.551 99.9849 193.294C99.9035 193.246 99.8261 193.193 99.7447 193.144C99.7365 193.14 99.7284 193.136 99.7202 193.127C99.7202 193.127 99.7202 193.127 99.7162 193.127C99.7162 193.127 99.708 193.123 99.7039 193.119C99.6999 193.119 99.6917 193.111 99.6877 193.111C99.6877 193.111 99.6836 193.111 99.6795 193.107C99.6795 193.107 99.6714 193.103 99.6673 193.099H99.6591C99.6591 193.099 99.6469 193.087 99.6429 193.083C99.6429 193.083 99.6388 193.083 99.6347 193.079C99.6306 193.079 99.6266 193.074 99.6225 193.07C99.6225 193.07 99.6144 193.066 99.6144 193.062C99.6103 193.062 99.6062 193.054 99.5981 193.054C99.5981 193.054 99.594 193.054 99.5899 193.05C99.5859 193.05 99.5777 193.042 99.5736 193.038C99.5736 193.038 99.5736 193.038 99.5696 193.038C99.5655 193.038 99.5614 193.03 99.5533 193.03C99.5533 193.03 99.5492 193.03 99.5451 193.026C99.5411 193.026 99.5329 193.017 99.5288 193.013C99.5288 193.013 99.5248 193.013 99.5207 193.009C99.5166 193.009 99.5126 193.001 99.5044 193.001C99.5044 193.001 99.5044 193.001 99.5003 193.001L99.4841 192.989C99.4841 192.989 99.48 192.989 99.4759 192.985C99.4718 192.985 99.4637 192.977 99.4555 192.973C99.4515 192.973 99.4433 192.964 99.4393 192.96C99.4393 192.96 99.4352 192.96 99.4311 192.96C99.427 192.96 99.4189 192.952 99.4108 192.948C99.4108 192.948 99.4108 192.948 99.4067 192.948C99.4026 192.948 99.3945 192.94 99.3904 192.936C99.3822 192.932 99.3782 192.928 99.37 192.924C99.37 192.924 99.37 192.924 99.366 192.924C99.3537 192.916 99.3375 192.907 99.3252 192.895C99.3171 192.891 99.309 192.887 99.3049 192.883C99.2886 192.875 99.2723 192.863 99.2601 192.854C99.1135 192.761 98.9465 192.712 98.7837 192.712L98.7674 192.683ZM106.606 196.908C106.268 196.908 105.946 197.104 105.804 197.434C105.608 197.878 105.812 198.396 106.256 198.591C106.533 198.713 106.81 198.832 107.087 198.95C107.197 198.995 107.315 199.019 107.425 199.019C107.767 199.019 108.092 198.815 108.235 198.481C108.422 198.033 108.21 197.52 107.767 197.332C107.697 197.304 107.624 197.271 107.555 197.243C107.555 197.243 107.551 197.243 107.547 197.243C107.547 197.243 107.539 197.243 107.535 197.239C107.53 197.239 107.522 197.234 107.514 197.23C107.514 197.23 107.51 197.23 107.506 197.23C107.49 197.222 107.473 197.218 107.461 197.21C107.294 197.137 107.123 197.063 106.956 196.99C106.842 196.941 106.724 196.917 106.606 196.917V196.908ZM115.019 199.822C114.628 199.822 114.274 200.087 114.172 200.482C114.05 200.95 114.335 201.431 114.803 201.549C115.096 201.627 115.39 201.696 115.683 201.769C115.752 201.786 115.821 201.794 115.89 201.794C116.285 201.794 116.648 201.525 116.741 201.121C116.855 200.653 116.566 200.176 116.094 200.062C116.033 200.046 115.968 200.034 115.907 200.017C115.899 200.017 115.89 200.013 115.882 200.009C115.874 200.009 115.87 200.009 115.862 200.005C115.862 200.005 115.862 200.005 115.858 200.005C115.85 200.005 115.846 200.005 115.837 200.001H115.829C115.825 200.001 115.817 200.001 115.813 200.001C115.809 200.001 115.805 200.001 115.801 200.001C115.797 200.001 115.793 200.001 115.789 200.001H115.78C115.776 200.001 115.768 200.001 115.76 199.997H115.752C115.748 199.997 115.744 199.997 115.736 199.997C115.732 199.997 115.727 199.997 115.723 199.997C115.719 199.997 115.715 199.997 115.711 199.997H115.703C115.699 199.997 115.691 199.997 115.683 199.993C115.683 199.993 115.679 199.993 115.675 199.993C115.666 199.993 115.662 199.993 115.654 199.989C115.654 199.989 115.65 199.989 115.646 199.989C115.638 199.989 115.634 199.989 115.626 199.985C115.626 199.985 115.626 199.985 115.622 199.985C115.613 199.985 115.605 199.985 115.597 199.981C115.483 199.952 115.365 199.924 115.251 199.891C115.178 199.871 115.104 199.862 115.035 199.862L115.019 199.822ZM123.794 201.341C123.346 201.341 122.964 201.684 122.923 202.14C122.878 202.621 123.236 203.049 123.717 203.093C124.018 203.122 124.32 203.146 124.621 203.167C124.641 203.167 124.666 203.167 124.686 203.167C125.142 203.167 125.525 202.816 125.561 202.356C125.598 201.871 125.236 201.451 124.755 201.415C124.462 201.394 124.169 201.37 123.876 201.341C123.851 201.341 123.823 201.341 123.798 201.341H123.794ZM133.588 201.366C133.563 201.366 133.539 201.366 133.514 201.366C133.221 201.39 132.928 201.415 132.635 201.435C132.15 201.468 131.788 201.887 131.82 202.372C131.853 202.837 132.24 203.191 132.696 203.191C132.716 203.191 132.736 203.191 132.757 203.191C133.058 203.171 133.359 203.146 133.661 203.122C134.145 203.081 134.5 202.657 134.459 202.173C134.418 201.716 134.035 201.37 133.588 201.37V201.366ZM142.371 199.899C142.302 199.899 142.228 199.907 142.159 199.924C142.09 199.94 142.025 199.956 141.956 199.972C141.956 199.972 141.952 199.972 141.947 199.972C141.943 199.972 141.939 199.972 141.935 199.972C141.935 199.972 141.927 199.972 141.923 199.972H141.915C141.915 199.972 141.903 199.977 141.899 199.981C141.899 199.981 141.895 199.981 141.89 199.981C141.882 199.981 141.874 199.981 141.87 199.985C141.683 200.029 141.495 200.074 141.308 200.119C140.84 200.233 140.547 200.702 140.657 201.17C140.75 201.574 141.113 201.851 141.512 201.851C141.577 201.851 141.646 201.843 141.711 201.826C142.004 201.757 142.298 201.688 142.591 201.614C143.059 201.496 143.348 201.02 143.23 200.551C143.132 200.152 142.774 199.887 142.379 199.887L142.371 199.899ZM150.808 197.055C150.694 197.055 150.576 197.08 150.462 197.124C150.454 197.124 150.45 197.129 150.442 197.133C150.214 197.23 149.99 197.324 149.762 197.418C149.754 197.418 149.75 197.422 149.741 197.426C149.741 197.426 149.733 197.426 149.729 197.43C149.729 197.43 149.721 197.43 149.717 197.434C149.713 197.434 149.705 197.438 149.701 197.442C149.688 197.446 149.676 197.45 149.664 197.459C149.216 197.642 149 198.155 149.183 198.603C149.322 198.942 149.652 199.149 149.994 199.149C150.104 199.149 150.218 199.129 150.328 199.084C150.609 198.97 150.886 198.852 151.163 198.734C151.606 198.542 151.814 198.025 151.623 197.581C151.48 197.247 151.154 197.047 150.816 197.047L150.808 197.055ZM158.684 192.895C158.525 192.895 158.362 192.94 158.219 193.03C157.971 193.189 157.719 193.343 157.466 193.498C157.055 193.751 156.929 194.293 157.181 194.704C157.348 194.973 157.633 195.124 157.93 195.124C158.085 195.124 158.244 195.083 158.386 194.994C158.643 194.835 158.899 194.676 159.156 194.513C159.563 194.252 159.685 193.71 159.425 193.303C159.258 193.038 158.973 192.895 158.684 192.895ZM165.789 187.521C165.582 187.521 165.374 187.594 165.207 187.741C165.166 187.778 165.126 187.814 165.081 187.851C165.073 187.855 165.069 187.863 165.06 187.867C165.056 187.871 165.048 187.88 165.044 187.884C165.036 187.888 165.032 187.892 165.028 187.9C164.873 188.039 164.714 188.177 164.556 188.311C164.189 188.629 164.148 189.183 164.466 189.55C164.641 189.75 164.885 189.856 165.13 189.856C165.333 189.856 165.537 189.786 165.704 189.644C165.932 189.448 166.16 189.249 166.384 189.045C166.746 188.723 166.779 188.169 166.453 187.806C166.278 187.611 166.038 187.513 165.797 187.513L165.789 187.521ZM171.938 181.079C171.686 181.079 171.433 181.189 171.258 181.401C171.116 181.577 170.973 181.748 170.831 181.919C170.786 181.972 170.741 182.025 170.696 182.078C170.387 182.448 170.431 183.003 170.806 183.316C170.969 183.455 171.173 183.52 171.368 183.52C171.616 183.52 171.869 183.414 172.04 183.206C172.235 182.974 172.427 182.742 172.618 182.51C172.924 182.135 172.867 181.581 172.492 181.275C172.329 181.145 172.134 181.079 171.938 181.079ZM176.987 173.741C176.686 173.741 176.389 173.9 176.226 174.181C176.141 174.328 176.055 174.475 175.969 174.621C175.953 174.654 175.933 174.683 175.917 174.715C175.917 174.715 175.908 174.727 175.908 174.736C175.9 174.752 175.888 174.768 175.88 174.784C175.88 174.784 175.88 174.789 175.876 174.793C175.876 174.793 175.872 174.801 175.868 174.805C175.868 174.805 175.864 174.813 175.86 174.817C175.86 174.817 175.86 174.821 175.855 174.825C175.855 174.833 175.847 174.837 175.843 174.842C175.839 174.85 175.835 174.858 175.831 174.862C175.827 174.87 175.823 174.874 175.819 174.882C175.811 174.899 175.798 174.915 175.79 174.931C175.542 175.347 175.676 175.885 176.092 176.133C176.234 176.219 176.389 176.259 176.54 176.259C176.837 176.259 177.13 176.109 177.293 175.832C177.448 175.571 177.602 175.31 177.753 175.049C177.993 174.63 177.851 174.092 177.431 173.851C177.293 173.77 177.142 173.733 176.992 173.733L176.987 173.741ZM180.807 165.694C180.453 165.694 180.123 165.91 179.989 166.257C179.944 166.375 179.899 166.497 179.85 166.615C179.85 166.623 179.846 166.632 179.842 166.636C179.842 166.644 179.838 166.652 179.834 166.656C179.834 166.66 179.834 166.664 179.83 166.672C179.83 166.672 179.83 166.676 179.83 166.68L179.822 166.697C179.773 166.823 179.724 166.945 179.675 167.072C179.496 167.524 179.716 168.033 180.168 168.212C180.274 168.253 180.384 168.274 180.494 168.274C180.844 168.274 181.174 168.066 181.308 167.719C181.418 167.438 181.528 167.157 181.638 166.876C181.809 166.424 181.581 165.914 181.129 165.743C181.027 165.703 180.921 165.686 180.819 165.686L180.807 165.694ZM183.283 157.134C182.876 157.134 182.509 157.419 182.424 157.835C182.367 158.124 182.306 158.414 182.24 158.699C182.139 159.171 182.436 159.64 182.908 159.742C182.973 159.754 183.035 159.762 183.1 159.762C183.503 159.762 183.865 159.481 183.955 159.074C184.02 158.78 184.081 158.483 184.142 158.185C184.24 157.709 183.93 157.248 183.458 157.15C183.401 157.138 183.34 157.134 183.283 157.134ZM184.35 148.289C183.881 148.289 183.495 148.655 183.474 149.128C183.474 149.185 183.47 149.238 183.466 149.295C183.466 149.295 183.466 149.311 183.466 149.319C183.466 149.324 183.466 149.328 183.466 149.332C183.466 149.332 183.466 149.336 183.466 149.34C183.466 149.344 183.466 149.352 183.466 149.356C183.458 149.511 183.45 149.67 183.442 149.825C183.442 149.825 183.442 149.829 183.442 149.833C183.442 149.837 183.442 149.841 183.442 149.845C183.442 149.853 183.442 149.857 183.442 149.865C183.442 149.91 183.438 149.959 183.434 150.004C183.409 150.489 183.776 150.9 184.26 150.929C184.276 150.929 184.293 150.929 184.309 150.929C184.769 150.929 185.156 150.566 185.185 150.102C185.201 149.8 185.217 149.499 185.229 149.197C185.25 148.712 184.871 148.305 184.386 148.285C184.374 148.285 184.362 148.285 184.35 148.285V148.289ZM183.996 139.386C183.959 139.386 183.926 139.386 183.89 139.394C183.409 139.451 183.067 139.891 183.124 140.372C183.161 140.661 183.193 140.955 183.222 141.244C183.271 141.696 183.649 142.03 184.093 142.03C184.122 142.03 184.154 142.03 184.187 142.026C184.667 141.977 185.018 141.545 184.969 141.061C184.936 140.759 184.904 140.462 184.867 140.16C184.814 139.716 184.435 139.386 183.996 139.386ZM182.228 130.655C182.147 130.655 182.065 130.667 181.984 130.687C181.52 130.822 181.251 131.306 181.381 131.775C181.463 132.056 181.54 132.337 181.617 132.623C181.723 133.014 182.078 133.27 182.464 133.27C182.542 133.27 182.615 133.262 182.692 133.242C183.161 133.116 183.438 132.635 183.311 132.166C183.234 131.873 183.153 131.584 183.067 131.294C182.957 130.911 182.607 130.659 182.224 130.659L182.228 130.655ZM179.093 122.314C178.967 122.314 178.84 122.343 178.718 122.4C178.282 122.608 178.091 123.125 178.299 123.565C178.339 123.647 178.376 123.732 178.417 123.818C178.425 123.834 178.433 123.85 178.437 123.863C178.437 123.863 178.437 123.871 178.441 123.871C178.441 123.871 178.441 123.879 178.445 123.883C178.445 123.883 178.445 123.891 178.449 123.895C178.449 123.895 178.449 123.903 178.453 123.903C178.462 123.92 178.47 123.936 178.474 123.952C178.498 124.005 178.519 124.054 178.543 124.103C178.543 124.103 178.547 124.115 178.551 124.123C178.551 124.123 178.551 124.123 178.551 124.127C178.551 124.136 178.559 124.144 178.563 124.152C178.563 124.152 178.563 124.16 178.567 124.16C178.567 124.16 178.567 124.168 178.572 124.168C178.572 124.176 178.572 124.176 178.58 124.184C178.58 124.184 178.58 124.184 178.58 124.189C178.604 124.246 178.633 124.307 178.661 124.364C178.808 124.686 179.125 124.877 179.459 124.877C179.581 124.877 179.704 124.853 179.818 124.8C180.257 124.6 180.457 124.078 180.257 123.638C180.135 123.361 180.005 123.088 179.879 122.815C179.728 122.498 179.414 122.31 179.085 122.31L179.093 122.314ZM174.662 114.585C174.491 114.585 174.32 114.634 174.166 114.74C173.766 115.013 173.665 115.559 173.938 115.962C173.986 116.032 174.035 116.105 174.084 116.174C174.084 116.174 174.104 116.207 174.117 116.223C174.117 116.223 174.125 116.235 174.125 116.239C174.125 116.239 174.125 116.239 174.129 116.247C174.129 116.252 174.133 116.256 174.137 116.26C174.137 116.26 174.137 116.26 174.137 116.264C174.141 116.272 174.149 116.28 174.153 116.288C174.153 116.288 174.153 116.292 174.157 116.296L174.166 116.309C174.166 116.309 174.17 116.317 174.174 116.317L174.182 116.329C174.182 116.329 174.186 116.337 174.19 116.341C174.19 116.341 174.194 116.349 174.198 116.353C174.198 116.358 174.206 116.366 174.21 116.37C174.21 116.37 174.21 116.374 174.214 116.378C174.214 116.382 174.223 116.386 174.223 116.394C174.223 116.394 174.223 116.394 174.223 116.398C174.223 116.402 174.231 116.41 174.235 116.419C174.239 116.427 174.243 116.435 174.251 116.439C174.255 116.447 174.259 116.451 174.263 116.459C174.316 116.537 174.365 116.614 174.418 116.692C174.585 116.944 174.866 117.083 175.147 117.083C175.314 117.083 175.481 117.034 175.632 116.936C176.035 116.667 176.145 116.125 175.88 115.718C175.713 115.465 175.546 115.217 175.375 114.968C175.204 114.72 174.931 114.585 174.65 114.585H174.662ZM169.047 107.671C168.827 107.671 168.611 107.752 168.44 107.915C168.09 108.249 168.078 108.808 168.412 109.158C168.489 109.24 168.571 109.325 168.648 109.407C168.648 109.407 168.656 109.419 168.66 109.423C168.66 109.423 168.685 109.451 168.701 109.464C168.701 109.464 168.705 109.468 168.709 109.472L168.717 109.48L168.725 109.488C168.725 109.488 168.729 109.492 168.733 109.496C168.738 109.504 168.742 109.504 168.75 109.512C168.754 109.521 168.762 109.525 168.766 109.533C168.774 109.541 168.778 109.545 168.782 109.549C168.86 109.631 168.933 109.708 169.006 109.794C169.177 109.977 169.413 110.071 169.65 110.071C169.861 110.071 170.077 109.993 170.244 109.838C170.598 109.508 170.623 108.954 170.293 108.6C170.089 108.38 169.882 108.16 169.674 107.94C169.503 107.761 169.271 107.667 169.039 107.667L169.047 107.671ZM162.397 101.747C162.133 101.747 161.868 101.865 161.697 102.093C161.404 102.48 161.481 103.03 161.868 103.323C161.868 103.323 161.868 103.323 161.872 103.323C161.876 103.323 161.88 103.332 161.884 103.332C161.884 103.332 161.888 103.332 161.892 103.336C161.896 103.34 161.905 103.344 161.909 103.348C161.925 103.36 161.937 103.368 161.949 103.381C161.953 103.385 161.966 103.393 161.97 103.397C162.169 103.548 162.361 103.698 162.556 103.849C162.715 103.975 162.906 104.032 163.094 104.032C163.354 104.032 163.611 103.918 163.786 103.694C164.083 103.311 164.018 102.761 163.635 102.464C163.399 102.276 163.159 102.093 162.919 101.91C162.76 101.792 162.572 101.73 162.389 101.73L162.397 101.747ZM154.897 96.947C154.583 96.947 154.278 97.1141 154.123 97.4115C153.895 97.8393 154.058 98.3731 154.485 98.5972C154.742 98.7357 154.998 98.8742 155.255 99.0168C155.389 99.0902 155.536 99.1268 155.678 99.1268C155.988 99.1268 156.285 98.9639 156.448 98.6746C156.684 98.2508 156.529 97.7171 156.106 97.4808C155.841 97.3341 155.577 97.1915 155.312 97.0489C155.182 96.9796 155.039 96.947 154.901 96.947H154.897ZM146.724 93.4104C146.357 93.4104 146.02 93.6427 145.893 94.0053C145.739 94.4657 145.983 94.9628 146.443 95.1176C146.72 95.2113 146.997 95.3091 147.27 95.4069C147.367 95.4436 147.465 95.4599 147.567 95.4599C147.925 95.4599 148.263 95.2358 148.394 94.8772C148.556 94.4209 148.32 93.9198 147.864 93.7568C147.579 93.6549 147.294 93.5571 147.009 93.4593C146.915 93.4268 146.822 93.4145 146.728 93.4145L146.724 93.4104ZM138.087 91.2347C137.668 91.2347 137.293 91.5403 137.224 91.9681C137.142 92.4448 137.468 92.8971 137.945 92.9786C138.234 93.0275 138.523 93.0764 138.808 93.1293C138.861 93.1375 138.914 93.1456 138.967 93.1456C139.382 93.1456 139.753 92.8482 139.83 92.4244C139.92 91.9477 139.602 91.4914 139.126 91.4018C138.828 91.3488 138.531 91.2958 138.234 91.2469C138.185 91.2388 138.136 91.2347 138.087 91.2347Z" fill="#F5A405"/>
<path d="M246.408 85.9016H213.07C210.773 85.9016 208.904 84.0315 208.904 81.7335V79.1015C208.904 78.7388 209.197 78.4414 209.564 78.4414H249.918C250.28 78.4414 250.578 78.7348 250.578 79.1015V81.7335C250.578 84.0315 248.709 85.9016 246.412 85.9016H246.408ZM210.22 79.7574V81.7335C210.22 83.3062 211.498 84.5856 213.07 84.5856H246.408C247.98 84.5856 249.258 83.3062 249.258 81.7335V79.7574H210.22Z" fill="black"/>
<path d="M232.372 81.0732H227.106V82.3893H232.372V81.0732Z" fill="black"/>
<path d="M247.284 79.7574H212.195C211.832 79.7574 211.535 79.464 211.535 79.0973V58.0327C211.535 56.7003 212.618 55.6206 213.946 55.6206H245.529C246.86 55.6206 247.939 56.7044 247.939 58.0327V79.0973C247.939 79.4599 247.646 79.7574 247.28 79.7574H247.284ZM212.85 78.4413H246.624V58.0327C246.624 57.4296 246.131 56.9366 245.529 56.9366H213.946C213.343 56.9366 212.85 57.4296 212.85 58.0327V78.4413Z" fill="black"/>
<path d="M244.433 76.4651H243.117V73.6131H240.825C240.519 73.6131 240.255 73.4053 240.185 73.1078C239.921 71.9955 239.481 70.9321 238.878 69.9542C238.72 69.6935 238.756 69.3594 238.972 69.1434L240.593 67.5218L237.803 64.7309L236.183 66.3525C235.967 66.5684 235.629 66.6092 235.372 66.4462C234.403 65.8472 232.949 65.3787 232.172 65.122C231.899 65.0324 231.716 64.7797 231.716 64.4945V62.2006H227.77V64.4945C227.77 64.8001 227.562 65.065 227.265 65.1342C226.153 65.3991 225.09 65.8391 224.113 66.4421C223.852 66.601 223.519 66.5643 223.303 66.3484L221.682 64.7268L218.893 67.5177L220.513 69.1394C220.729 69.3553 220.77 69.6894 220.607 69.9502C220.004 70.928 219.565 71.9914 219.3 73.1038C219.231 73.4012 218.966 73.609 218.661 73.609H216.368V76.4611H215.053V72.9489C215.053 72.5863 215.346 72.2889 215.712 72.2889H218.152C218.408 71.3884 218.766 70.5247 219.223 69.7057L217.496 67.9781C217.239 67.7215 217.239 67.3059 217.496 67.0451L221.218 63.3211C221.474 63.0644 221.89 63.0644 222.15 63.3211L223.877 65.0487C224.695 64.5923 225.559 64.2297 226.459 63.9771V61.5365C226.459 61.1739 226.752 60.8765 227.118 60.8765H232.383C232.746 60.8765 233.043 61.1698 233.043 61.5365V64.0097C233.776 64.2541 234.77 64.6086 235.621 65.0568L237.355 63.3211C237.612 63.0644 238.027 63.0644 238.288 63.3211L242.01 67.0451C242.266 67.3018 242.266 67.7174 242.01 67.9781L240.283 69.7057C240.739 70.5247 241.102 71.3884 241.354 72.2889H243.793C244.156 72.2889 244.453 72.5822 244.453 72.9489V76.4611L244.433 76.4651Z" fill="black"/>
<path d="M237.413 76.4654H236.098C236.098 72.9573 233.243 70.1012 229.737 70.1012C226.231 70.1012 223.377 72.9573 223.377 76.4654H222.062C222.062 72.2321 225.506 68.7852 229.737 68.7852C233.968 68.7852 237.413 72.2321 237.413 76.4654Z" fill="black"/>
<path d="M370.565 85.9016H337.227C334.931 85.9016 333.062 84.0315 333.062 81.7335V79.1015C333.062 78.7388 333.355 78.4414 333.721 78.4414H374.075C374.438 78.4414 374.735 78.7348 374.735 79.1015V81.7335C374.735 84.0315 372.866 85.9016 370.569 85.9016H370.565ZM334.377 79.7574V81.7335C334.377 83.3062 335.655 84.5856 337.227 84.5856H370.565C372.137 84.5856 373.416 83.3062 373.416 81.7335V79.7574H334.377Z" fill="black"/>
<path d="M356.529 81.0732H351.264V82.3893H356.529V81.0732Z" fill="black"/>
<path d="M371.441 79.7574H336.352C335.99 79.7574 335.692 79.464 335.692 79.0973V58.0327C335.692 56.7003 336.776 55.6206 338.103 55.6206H369.686C371.017 55.6206 372.097 56.7044 372.097 58.0327V79.0973C372.097 79.4599 371.803 79.7574 371.437 79.7574H371.441ZM337.008 78.4413H370.781V58.0327C370.781 57.4296 370.289 56.9366 369.686 56.9366H338.103C337.5 56.9366 337.008 57.4296 337.008 58.0327V78.4413Z" fill="black"/>
<path d="M452.512 89.5031C469.337 89.5031 485.935 97.2527 496.636 111.88C514.46 136.241 509.17 170.441 484.827 188.275C475.099 195.401 463.799 198.836 452.601 198.836C435.776 198.836 419.178 191.086 408.476 176.459C390.653 152.098 395.943 117.898 420.285 100.064C430.014 92.9379 441.313 89.5031 452.512 89.5031ZM452.512 87.7471C440.483 87.7471 428.983 91.5159 419.247 98.6461C407.096 107.549 399.135 120.652 396.83 135.544C394.53 150.436 398.162 165.336 407.055 177.494C412.382 184.771 419.434 190.724 427.456 194.704C435.218 198.555 443.911 200.592 452.593 200.592C464.622 200.592 476.121 196.823 485.858 189.693C498.009 180.79 505.97 167.687 508.274 152.795C510.579 137.903 506.943 123.003 498.049 110.845C492.723 103.568 485.67 97.6153 477.648 93.6387C469.887 89.7883 461.193 87.7511 452.512 87.7511V87.7471Z" fill="#F5A405"/>
<path d="M468.104 157.554H440.031C438.699 157.554 437.62 156.47 437.62 155.142V151.63H438.935V155.142C438.935 155.745 439.428 156.238 440.031 156.238H468.104C468.706 156.238 469.199 155.745 469.199 155.142V136.709C469.199 136.106 468.706 135.613 468.104 135.613H440.031C439.428 135.613 438.935 136.106 438.935 136.709V141.978H437.62V136.709C437.62 135.377 438.703 134.297 440.031 134.297H468.104C469.435 134.297 470.514 135.381 470.514 136.709V155.142C470.514 156.474 469.431 157.554 468.104 157.554Z" fill="black"/>
<path d="M454.067 149.226C452.553 149.226 451.034 148.647 449.881 147.494L440.446 138.05L441.379 137.117L450.814 146.561C452.61 148.358 455.533 148.358 457.329 146.561L466.768 137.117L467.701 138.05L458.262 147.494C457.109 148.647 455.59 149.226 454.075 149.226H454.067Z" fill="black"/>
<path d="M447.46 146.774L440.443 153.795L441.373 154.726L448.39 147.705L447.46 146.774Z" fill="black"/>
<path d="M460.675 146.783L459.745 147.713L466.762 154.734L467.692 153.804L460.675 146.783Z" fill="black"/>
<path d="M440.906 141.317H432.135V142.633H440.906V141.317Z" fill="black"/>
<path d="M438.28 144.83H428.629V146.146H438.28V144.83Z" fill="black"/>
<path d="M441.786 148.338H433.015V149.654H441.786V148.338Z" fill="black"/>
<path d="M210.097 464.605H207.687V449.9C207.687 444.697 211.917 440.464 217.117 440.464H232.909V441.78H217.117C212.642 441.78 209.002 445.422 209.002 449.9V463.285H210.097V464.601V464.605Z" fill="black"/>
<path d="M249.356 464.605H225.889V463.289H248.041V449.905C248.041 445.427 244.4 441.784 239.925 441.784H234.66V440.468H239.925C245.125 440.468 249.356 444.702 249.356 449.905V464.609V464.605Z" fill="black"/>
<path d="M226.544 463.949H225.229V449.905C225.229 445.427 221.588 441.784 217.113 441.784V440.468C222.313 440.468 226.544 444.702 226.544 449.905V463.949Z" fill="black"/>
<path d="M232.905 459.341C230.608 459.341 228.739 457.47 228.739 455.173C228.739 452.875 230.608 451.004 232.905 451.004C235.202 451.004 237.071 452.875 237.071 455.173C237.071 457.47 235.202 459.341 232.905 459.341ZM232.905 452.316C231.333 452.316 230.055 453.596 230.055 455.168C230.055 456.741 231.333 458.021 232.905 458.021C234.477 458.021 235.755 456.741 235.755 455.168C235.755 453.596 234.477 452.316 232.905 452.316Z" fill="black"/>
<path d="M233.564 452.537H232.249V432.568H240.58V437.396H236.415V436.08H239.265V433.884H233.564V452.537Z" fill="black"/>
<path d="M229.179 463.949H227.863V473.605H229.179V463.949Z" fill="black"/>
<path d="M234.44 463.949H233.125V473.605H234.44V463.949Z" fill="black"/>
<path d="M225.888 464.605H211.192V449.245H224.133V450.561H212.508V463.289H225.888V464.605Z" fill="black"/>
<path d="M224.134 458.461H220.38L214.056 453.037L214.911 452.035L220.868 457.144H224.134V458.461Z" fill="black"/>
<path d="M217.529 457.338L213.581 461.288L214.511 462.218L218.459 458.268L217.529 457.338Z" fill="black"/>
<path d="M130.033 395.747L112.706 378.411V377.013L119.205 369.582H140.856L147.355 377.013V378.411L130.029 395.747H130.033ZM114.021 377.865L130.033 393.885L146.044 377.865V377.506L140.262 370.893H119.804L114.021 377.506V377.865Z" fill="black"/>
<path d="M146.704 376.602H113.366V377.918H146.704V376.602Z" fill="black"/>
<path d="M130.632 395.087L129.435 394.546L137.2 377.278L133.832 370.535L135.009 369.944L138.658 377.246L130.632 395.087Z" fill="black"/>
<path d="M129.434 395.087L121.408 377.246L125.057 369.944L126.234 370.535L122.866 377.278L130.631 394.546L129.434 395.087Z" fill="black"/>
<path d="M117.532 389.55H116.217V391.306H117.532V389.55Z" fill="black"/>
<path d="M117.532 393.062H116.217V394.819H117.532V393.062Z" fill="black"/>
<path d="M119.507 391.526H117.752V392.842H119.507V391.526Z" fill="black"/>
<path d="M115.996 391.526H114.241V392.842H115.996V391.526Z" fill="black"/>
<path d="M133.077 363.631L131.323 365.386L132.253 366.316L134.007 364.562L133.077 363.631Z" fill="black"/>
<path d="M137.463 359.243L135.709 360.997L136.639 361.928L138.393 360.173L137.463 359.243Z" fill="black"/>
<path d="M136.626 363.648L135.696 364.579L137.45 366.333L138.38 365.403L136.626 363.648Z" fill="black"/>
<path d="M132.25 359.241L131.32 360.171L133.074 361.926L134.004 360.995L132.25 359.241Z" fill="black"/>
<path d="M115.777 357.073H114.462V359.705H115.777V357.073Z" fill="black"/>
<path d="M115.777 363.217H114.462V365.849H115.777V363.217Z" fill="black"/>
<path d="M119.507 360.805H116.876V362.121H119.507V360.805Z" fill="black"/>
<path d="M113.362 360.805H110.731V362.121H113.362V360.805Z" fill="black"/>
<path d="M148.235 364.974H146.92V366.73H148.235V364.974Z" fill="black"/>
<path d="M148.235 368.486H146.92V370.242H148.235V368.486Z" fill="black"/>
<path d="M146.7 366.95H144.945V368.266H146.7V366.95Z" fill="black"/>
<path d="M150.21 366.95H148.455V368.266H150.21V366.95Z" fill="black"/>
<path d="M81.8768 255.556H80.5615V258.188H81.8768V255.556Z" fill="black"/>
<path d="M81.8768 249.411H80.5615V252.043H81.8768V249.411Z" fill="black"/>
<path d="M81.8768 243.267H80.5615V245.899H81.8768V243.267Z" fill="black"/>
<path d="M104.688 255.556H103.373V258.188H104.688V255.556Z" fill="black"/>
<path d="M104.688 249.411H103.373V252.043H104.688V249.411Z" fill="black"/>
<path d="M104.688 243.267H103.373V245.899H104.688V243.267Z" fill="black"/>
<path d="M92.6265 272.012C91.9017 272.012 90.2158 271.487 90.2158 266.601C90.2158 264.21 90.7248 260.16 92.6265 260.16C94.5281 260.16 95.0371 264.21 95.0371 266.601C95.0371 271.482 93.3513 272.012 92.6265 272.012ZM92.6265 261.492C92.2885 261.712 91.5311 263.427 91.5311 266.605C91.5311 269.783 92.2844 270.696 92.6265 270.696C92.9685 270.696 93.7219 269.665 93.7219 266.605C93.7219 263.546 92.9645 261.716 92.6265 261.492Z" fill="black"/>
<path d="M104.069 278.539L103.536 277.932C102.726 277.007 101.146 274.721 100.804 272.888H96.6012C96.3691 273.548 95.9293 274.726 95.6198 275.198L95.4244 275.496H89.8212L89.6258 275.198C89.3163 274.721 88.8765 273.548 88.6444 272.888H84.442C84.1041 274.721 82.5241 277.007 81.7097 277.932L81.1763 278.539L80.6917 277.895C78.5742 275.096 77.9268 273.157 77.9268 269.596C77.9268 262.572 80.6998 260.384 80.8179 260.294L81.3269 259.907L81.726 260.408C81.8319 260.543 84.2099 263.553 84.4787 267.184H86.698V266.964C86.698 264.218 87.8626 258.974 88.8602 255.319C91.1284 246.995 92.1382 246.995 92.6187 246.995C93.0992 246.995 94.1091 246.995 96.3772 255.319C97.3749 258.974 98.5395 264.218 98.5395 266.964V267.184H100.759C101.028 263.553 103.402 260.543 103.511 260.408L103.911 259.907L104.42 260.294C104.538 260.384 107.311 262.572 107.311 269.596C107.311 273.153 106.663 275.092 104.546 277.895L104.061 278.539H104.069ZM81.1559 261.867C80.4636 262.796 79.2461 265.073 79.2461 269.596C79.2461 272.554 79.7103 274.216 81.2455 276.412C82.1698 275.166 83.196 273.32 83.196 272.228V271.568H89.5891L89.7398 272.016C89.9475 272.627 90.3099 273.625 90.5705 274.175H94.6751C94.9357 273.625 95.3022 272.627 95.5058 272.016L95.6565 271.568H102.05V272.228C102.05 273.32 103.072 275.166 104 276.412C105.535 274.212 106 272.554 106 269.596C106 265.077 104.782 262.796 104.09 261.867C103.373 262.959 102.05 265.318 102.05 267.84V268.5H97.2242V266.964C97.2242 262.409 93.9299 250.65 92.6187 248.531C91.3075 250.65 88.0132 262.409 88.0132 266.964V268.471L87.3536 268.504H83.1879V267.844C83.1879 265.318 81.8644 262.959 81.1478 261.871L81.1559 261.867Z" fill="black"/>
<path d="M92.611 285.307L89.3574 277.757L90.5668 277.239L92.611 281.978L94.6552 277.239L95.8605 277.757L92.611 285.307Z" fill="black"/>
<path d="M494.242 266.72C494.051 266.72 493.856 266.683 493.668 266.61C493.086 266.377 492.728 265.84 492.728 265.212V261.838H489.877C488.032 261.838 486.587 260.425 486.587 258.624V245.382C486.587 243.569 488.061 242.09 489.877 242.09H510.054C511.866 242.09 513.344 243.565 513.344 245.382V258.624C513.344 260.429 511.899 261.838 510.054 261.838H499.544L495.374 266.235C495.069 266.553 494.662 266.724 494.246 266.724L494.242 266.72ZM489.873 243.402C488.786 243.402 487.898 244.286 487.898 245.378V258.62C487.898 259.683 488.765 260.518 489.873 260.518H494.039V265.208C494.039 265.241 494.039 265.338 494.153 265.383C494.198 265.4 494.312 265.432 494.417 265.322L498.974 260.518H510.05C511.158 260.518 512.025 259.683 512.025 258.62V245.378C512.025 244.29 511.141 243.402 510.05 243.402H489.873Z" fill="black"/>
<path d="M496.892 275.439H477.591V276.755H496.892V275.439Z" fill="black"/>
<path d="M494.258 282.023H480.222C478.41 282.023 476.932 280.548 476.932 278.731V248.886C476.932 247.073 478.406 245.594 480.222 245.594H485.487V246.91H480.222C479.135 246.91 478.247 247.794 478.247 248.886V278.731C478.247 279.819 479.131 280.707 480.222 280.707H494.258C495.345 280.707 496.233 279.823 496.233 278.731V266.442H497.548V278.731C497.548 280.544 496.074 282.023 494.258 282.023Z" fill="black"/>
<path d="M483.731 249.982H477.591V251.298H483.731V249.982Z" fill="black"/>
<path d="M488.997 278.071H485.487V279.387H488.997V278.071Z" fill="black"/>
<path d="M493.252 251.343C494.669 251.689 495.411 252.199 495.411 253.319C495.411 254.586 494.421 255.332 493.016 255.332C491.99 255.332 491.021 254.977 490.219 254.256L490.927 253.413C491.571 253.971 492.21 254.285 493.045 254.285C493.774 254.285 494.234 253.95 494.234 253.433C494.234 252.944 493.965 252.683 492.719 252.398C491.29 252.052 490.487 251.632 490.487 250.385C490.487 249.216 491.444 248.43 492.78 248.43C493.757 248.43 494.535 248.727 495.215 249.273L494.584 250.165C493.981 249.713 493.379 249.473 492.764 249.473C492.072 249.473 491.672 249.827 491.672 250.279C491.672 250.805 491.978 251.037 493.265 251.343H493.252Z" fill="black"/>
<path d="M500.102 253.588H500.065L497.968 250.442V255.238H496.808V248.523H498.062L500.102 251.697L502.142 248.523H503.396V255.238H502.219V250.422L500.102 253.588Z" fill="black"/>
<path d="M507.716 251.343C509.133 251.689 509.874 252.199 509.874 253.319C509.874 254.586 508.885 255.332 507.48 255.332C506.454 255.332 505.485 254.977 504.683 254.256L505.391 253.413C506.035 253.971 506.674 254.285 507.509 254.285C508.238 254.285 508.698 253.95 508.698 253.433C508.698 252.944 508.429 252.683 507.183 252.398C505.754 252.052 504.951 251.632 504.951 250.385C504.951 249.216 505.908 248.43 507.244 248.43C508.221 248.43 508.999 248.727 509.679 249.273L509.048 250.165C508.445 249.713 507.843 249.473 507.228 249.473C506.535 249.473 506.136 249.827 506.136 250.279C506.136 250.805 506.442 251.037 507.729 251.343H507.716Z" fill="black"/>
<path d="M462.175 394.436H442.873V395.752H462.175V394.436Z" fill="black"/>
<path d="M459.539 401.016H445.503C443.691 401.016 442.213 399.541 442.213 397.724V367.879C442.213 366.066 443.687 364.587 445.503 364.587H450.768V365.903H445.503C444.416 365.903 443.528 366.787 443.528 367.879V397.724C443.528 398.812 444.412 399.7 445.503 399.7H459.539C460.627 399.7 461.514 398.816 461.514 397.724V378.652H462.83V397.724C462.83 399.537 461.356 401.016 459.539 401.016Z" fill="black"/>
<path d="M454.279 397.068H450.769V398.384H454.279V397.068Z" fill="black"/>
<path d="M459.889 376.969C455.463 376.969 451.863 373.367 451.863 368.938C451.863 364.509 455.463 360.908 459.889 360.908C464.316 360.908 467.915 364.509 467.915 368.938C467.915 373.367 464.316 376.969 459.889 376.969ZM459.889 362.224C456.188 362.224 453.179 365.235 453.179 368.938C453.179 372.642 456.188 375.653 459.889 375.653C463.591 375.653 466.6 372.642 466.6 368.938C466.6 365.235 463.591 362.224 459.889 362.224Z" fill="black"/>
<path d="M457.691 366.376V365.251H462.561V366.221L460.508 368.327C461.636 368.474 462.675 369.032 462.675 370.413C462.675 371.794 461.624 372.752 460.097 372.752C458.814 372.752 457.898 372.214 457.279 371.456L458.183 370.613C458.709 371.232 459.299 371.583 460.118 371.583C460.842 371.583 461.392 371.143 461.392 370.458C461.392 369.721 460.741 369.309 459.698 369.309H459.099L458.888 368.498L460.875 366.384H457.687L457.691 366.376Z" fill="black"/>
<path d="M337.231 467.412C337.04 467.412 336.844 467.376 336.657 467.302C336.07 467.066 335.692 466.508 335.692 465.876V462.576H335.472C333.656 462.576 332.182 461.101 332.182 459.284V444.363C332.182 442.546 333.656 441.071 335.472 441.071H353.018C354.83 441.071 356.309 442.546 356.309 444.363V459.284C356.309 461.097 354.834 462.576 353.018 462.576H342.504L338.335 466.936C338.037 467.245 337.638 467.412 337.227 467.412H337.231ZM335.472 442.387C334.385 442.387 333.497 443.271 333.497 444.363V459.284C333.497 460.372 334.381 461.26 335.472 461.26H337.007V465.876C337.007 465.998 337.08 466.056 337.145 466.08C337.207 466.104 337.3 466.117 337.386 466.027L341.942 461.26H353.018C354.106 461.26 354.993 460.376 354.993 459.284V444.363C354.993 443.276 354.11 442.387 353.018 442.387H335.472Z" fill="black"/>
<path d="M353.898 456.432H344.247C342.435 456.432 340.957 454.957 340.957 453.14V443.483H342.272V453.14C342.272 454.228 343.156 455.116 344.247 455.116H353.898V456.432Z" fill="black"/>
<path d="M369.47 447.876H368.154V438.219C368.154 437.131 367.271 436.243 366.179 436.243H344.247C343.16 436.243 342.272 437.127 342.272 438.219V441.731H340.957V438.219C340.957 436.406 342.431 434.927 344.247 434.927H366.179C367.995 434.927 369.47 436.402 369.47 438.219V447.876Z" fill="black"/>
<path d="M363.544 461.345C363.145 461.345 362.758 461.191 362.461 460.897L357.974 456.432H355.648V455.116H358.515L363.389 459.964C363.479 460.054 363.577 460.033 363.63 460.013C363.679 459.993 363.764 459.94 363.764 459.809V455.116H366.175C367.262 455.116 368.15 454.232 368.15 453.14V449.627H369.465V453.14C369.465 454.953 367.991 456.432 366.175 456.432H365.079V459.809C365.079 460.433 364.709 460.987 364.135 461.227C363.943 461.309 363.744 461.345 363.544 461.345Z" fill="black"/>
<path d="M366.175 473.911C365.833 473.911 365.495 473.797 365.214 473.569L359.191 468.72H349.508C347.696 468.72 346.218 467.246 346.218 465.428V461.916H347.533V465.428C347.533 466.516 348.417 467.404 349.508 467.404H359.656L366.036 472.546C366.13 472.62 366.224 472.595 366.269 472.575C366.313 472.555 366.391 472.498 366.391 472.375V467.404H370.556C371.644 467.404 372.531 466.52 372.531 465.428V450.508C372.531 449.42 371.648 448.532 370.556 448.532H355.645V447.216H370.556C372.369 447.216 373.847 448.691 373.847 450.508V465.428C373.847 467.242 372.373 468.72 370.556 468.72H367.706V472.371C367.706 472.966 367.372 473.5 366.835 473.757C366.623 473.858 366.395 473.907 366.167 473.907L366.175 473.911Z" fill="black"/>
<path d="M347.537 455.776H346.222V460.164H347.537V455.776Z" fill="black"/>
<path d="M347.537 454.02H346.222V450.508C346.222 448.695 347.696 447.216 349.512 447.216H353.897V448.532H349.512C348.425 448.532 347.537 449.416 347.537 450.508V454.02Z" fill="black"/>
<path d="M352.798 15.4387C375.752 15.4387 397.119 30.0291 404.684 53.0373C414.111 81.713 398.519 112.609 369.86 122.041C364.196 123.907 358.438 124.792 352.782 124.792C329.828 124.792 308.462 110.201 300.896 87.193C291.469 58.5174 307.061 27.6212 335.72 18.1889C341.384 16.3228 347.142 15.4387 352.798 15.4387ZM352.802 13.6826C346.825 13.6826 340.896 14.6401 335.17 16.5225C320.865 21.2325 309.244 31.2311 302.455 44.6848C295.667 58.1384 294.519 73.4297 299.226 87.7431C303.009 99.2533 310.209 109.044 320.047 116.052C329.685 122.917 341.006 126.548 352.778 126.548C358.752 126.548 364.681 125.594 370.406 123.708C384.711 118.998 396.333 108.999 403.121 95.5456C409.909 82.0919 411.057 66.8006 406.35 52.4872C402.567 40.9771 395.368 31.1863 385.534 24.1783C375.895 17.3129 364.579 13.6826 352.802 13.6826Z" fill="#F5A405"/>
<path d="M229.725 16.3147C235.255 16.3147 240.883 17.1621 246.433 18.9427C275.161 28.1671 290.977 58.9492 281.758 87.6942C274.318 110.886 252.854 125.668 229.754 125.668C224.224 125.668 218.596 124.82 213.046 123.04C184.318 113.815 168.502 83.033 177.721 54.2881C185.161 31.0966 206.624 16.3147 229.725 16.3147ZM229.725 14.5586C217.875 14.5586 206.498 18.2296 196.827 25.1765C186.956 32.2619 179.773 42.1423 176.051 53.7503C171.45 68.1003 172.708 83.3834 179.594 96.7842C186.48 110.185 198.171 120.102 212.513 124.71C218.12 126.511 223.922 127.424 229.754 127.424C241.603 127.424 252.977 123.753 262.652 116.806C272.522 109.72 279.706 99.84 283.427 88.232C288.029 73.8819 286.771 58.5988 279.885 45.1981C272.999 31.7974 261.308 21.8803 246.966 17.2721C241.359 15.4713 235.56 14.5586 229.725 14.5586Z" fill="#F5A405"/>
<path d="M369.115 70.1008H338.652C338.289 70.1008 337.992 69.8074 337.992 69.4407V61.5404C337.992 61.1778 338.285 60.8804 338.652 60.8804H369.115C369.477 60.8804 369.775 61.1737 369.775 61.5404V69.4407C369.775 69.8033 369.481 70.1008 369.115 70.1008ZM339.312 68.7847H368.455V62.2005H339.312V68.7847Z" fill="black"/>
<path d="M367.975 71.9546H354.875V73.2706H367.975V71.9546Z" fill="black"/>
<path d="M367.975 74.7622H354.875V76.0782H367.975V74.7622Z" fill="black"/>
<path d="M342.785 58.542H338.656V59.858H342.785V58.542Z" fill="black"/>
<path d="M342.786 76.681H338.657C338.294 76.681 337.997 76.3877 337.997 76.021V71.8895C337.997 71.5269 338.29 71.2295 338.657 71.2295H342.786C343.148 71.2295 343.445 71.5228 343.445 71.8895V76.021C343.445 76.3836 343.152 76.681 342.786 76.681ZM339.316 75.365H342.13V72.5496H339.316V75.365Z" fill="black"/>
<path d="M350.893 76.681H346.764C346.402 76.681 346.104 76.3877 346.104 76.021V71.8895C346.104 71.5269 346.398 71.2295 346.764 71.2295H350.893C351.256 71.2295 351.553 71.5228 351.553 71.8895V76.021C351.553 76.3836 351.26 76.681 350.893 76.681ZM347.424 75.365H350.238V72.5496H347.424V75.365Z" fill="black"/>
<path d="M104.11 139.964C104.073 139.582 103.906 139.284 103.621 139.068C103.332 138.856 102.941 138.75 102.449 138.75C102.111 138.75 101.83 138.795 101.598 138.889C101.365 138.983 101.19 139.113 101.068 139.276C100.946 139.439 100.885 139.626 100.885 139.838C100.877 140.013 100.917 140.164 100.995 140.295C101.076 140.425 101.186 140.535 101.329 140.629C101.471 140.722 101.634 140.804 101.821 140.873C102.009 140.942 102.208 140.999 102.42 141.048L103.296 141.256C103.719 141.35 104.11 141.476 104.464 141.635C104.819 141.794 105.128 141.989 105.389 142.222C105.649 142.454 105.849 142.727 105.995 143.041C106.138 143.354 106.215 143.713 106.215 144.12C106.215 144.715 106.06 145.233 105.759 145.669C105.458 146.105 105.03 146.443 104.464 146.683C103.902 146.924 103.222 147.042 102.432 147.042C101.642 147.042 100.962 146.92 100.38 146.679C99.7977 146.439 99.3457 146.08 99.0199 145.608C98.6942 145.135 98.5231 144.544 98.5068 143.843H100.498C100.518 144.169 100.616 144.442 100.783 144.658C100.95 144.874 101.174 145.037 101.455 145.147C101.736 145.257 102.054 145.31 102.408 145.31C102.762 145.31 103.059 145.261 103.32 145.159C103.577 145.058 103.78 144.915 103.923 144.736C104.065 144.556 104.138 144.349 104.138 144.112C104.138 143.892 104.073 143.709 103.947 143.562C103.817 143.411 103.634 143.285 103.385 143.183C103.137 143.081 102.84 142.984 102.485 142.898L101.426 142.633C100.604 142.434 99.9565 142.12 99.4801 141.696C99.0036 141.272 98.7675 140.698 98.7715 139.977C98.7715 139.386 98.9263 138.873 99.2439 138.428C99.5615 137.988 100.001 137.642 100.559 137.398C101.117 137.149 101.752 137.027 102.461 137.027C103.169 137.027 103.817 137.149 104.354 137.398C104.896 137.646 105.315 137.988 105.617 138.428C105.918 138.868 106.073 139.382 106.081 139.96H104.106L104.11 139.964Z" fill="black"/>
<path d="M108.337 149.65C108.081 149.65 107.84 149.629 107.616 149.589C107.392 149.548 107.209 149.499 107.063 149.438L107.519 147.926C107.755 148 107.971 148.04 108.162 148.044C108.353 148.053 108.52 148.008 108.663 147.91C108.805 147.816 108.919 147.653 109.009 147.425L109.127 147.115L106.509 139.598H108.638L110.149 144.964H110.227L111.754 139.598H113.9L111.061 147.698C110.927 148.089 110.74 148.436 110.508 148.729C110.275 149.022 109.982 149.25 109.624 149.409C109.27 149.568 108.842 149.65 108.341 149.65H108.337Z" fill="black"/>
<path d="M120.545 141.684L118.692 141.798C118.659 141.639 118.59 141.496 118.488 141.366C118.382 141.236 118.248 141.134 118.077 141.056C117.906 140.979 117.706 140.938 117.47 140.938C117.157 140.938 116.892 141.003 116.676 141.134C116.46 141.264 116.355 141.439 116.355 141.659C116.355 141.835 116.424 141.981 116.562 142.104C116.701 142.226 116.941 142.32 117.279 142.393L118.602 142.658C119.311 142.804 119.84 143.037 120.19 143.363C120.541 143.684 120.716 144.112 120.716 144.638C120.716 145.119 120.577 145.538 120.296 145.897C120.015 146.259 119.633 146.541 119.144 146.74C118.655 146.94 118.097 147.042 117.462 147.042C116.493 147.042 115.727 146.838 115.153 146.435C114.579 146.031 114.245 145.477 114.147 144.78L116.139 144.675C116.2 144.968 116.346 145.192 116.578 145.347C116.811 145.502 117.108 145.579 117.466 145.579C117.825 145.579 118.105 145.51 118.325 145.371C118.541 145.233 118.651 145.053 118.655 144.837C118.655 144.654 118.574 144.503 118.423 144.381C118.272 144.263 118.036 144.169 117.719 144.108L116.452 143.856C115.74 143.713 115.21 143.464 114.86 143.114C114.514 142.764 114.339 142.311 114.339 141.765C114.339 141.297 114.465 140.893 114.722 140.551C114.978 140.213 115.337 139.948 115.801 139.765C116.265 139.582 116.811 139.488 117.434 139.488C118.358 139.488 119.083 139.683 119.612 140.075C120.142 140.466 120.455 140.995 120.541 141.668L120.545 141.684Z" fill="black"/>
<path d="M125.407 139.598V141.122H121.009V139.598H125.407ZM122.006 137.846H124.03V144.658C124.03 144.846 124.059 144.993 124.116 145.094C124.173 145.196 124.254 145.27 124.356 145.31C124.458 145.351 124.58 145.371 124.714 145.371C124.808 145.371 124.906 145.363 124.999 145.347C125.093 145.331 125.166 145.314 125.219 145.306L125.537 146.814C125.435 146.846 125.293 146.883 125.109 146.924C124.926 146.969 124.702 146.993 124.437 147.001C123.949 147.022 123.521 146.956 123.155 146.806C122.788 146.655 122.503 146.427 122.3 146.109C122.096 145.795 121.998 145.4 121.998 144.919V137.838L122.006 137.846Z" fill="black"/>
<path d="M129.508 147.05C128.759 147.05 128.111 146.895 127.57 146.589C127.028 146.284 126.613 145.848 126.319 145.286C126.026 144.723 125.884 144.055 125.884 143.285C125.884 142.515 126.03 141.875 126.319 141.305C126.613 140.739 127.024 140.295 127.553 139.977C128.083 139.659 128.71 139.5 129.426 139.5C129.907 139.5 130.359 139.577 130.774 139.732C131.19 139.887 131.556 140.115 131.87 140.425C132.183 140.73 132.428 141.118 132.599 141.582C132.77 142.047 132.859 142.588 132.859 143.212V143.77H126.69V142.515H130.949C130.949 142.222 130.884 141.965 130.758 141.741C130.632 141.517 130.457 141.338 130.233 141.211C130.009 141.085 129.748 141.02 129.455 141.02C129.162 141.02 128.877 141.089 128.641 141.232C128.404 141.374 128.221 141.562 128.087 141.798C127.952 142.034 127.887 142.295 127.883 142.584V143.778C127.883 144.141 127.952 144.45 128.087 144.715C128.221 144.98 128.413 145.18 128.661 145.322C128.909 145.465 129.203 145.538 129.54 145.538C129.764 145.538 129.972 145.506 130.159 145.445C130.347 145.379 130.506 145.286 130.64 145.159C130.774 145.033 130.876 144.878 130.945 144.695L132.819 144.817C132.725 145.269 132.529 145.661 132.236 145.995C131.943 146.329 131.564 146.589 131.104 146.777C130.644 146.964 130.111 147.054 129.508 147.054V147.05Z" fill="black"/>
<path d="M133.714 146.908V139.598H135.644V140.89H135.73C135.88 140.462 136.137 140.124 136.491 139.875C136.845 139.627 137.273 139.504 137.766 139.504C138.258 139.504 138.694 139.631 139.044 139.879C139.394 140.128 139.631 140.466 139.749 140.89H139.826C139.977 140.47 140.245 140.136 140.636 139.883C141.027 139.631 141.491 139.504 142.029 139.504C142.709 139.504 143.263 139.72 143.69 140.152C144.118 140.584 144.33 141.199 144.33 141.99V146.904H142.31V142.389C142.31 141.982 142.204 141.68 141.988 141.476C141.772 141.273 141.504 141.171 141.178 141.171C140.811 141.171 140.522 141.289 140.319 141.521C140.111 141.753 140.009 142.063 140.009 142.442V146.904H138.047V142.344C138.047 141.986 137.945 141.7 137.741 141.489C137.538 141.277 137.269 141.171 136.935 141.171C136.711 141.171 136.507 141.228 136.328 141.342C136.149 141.456 136.006 141.611 135.905 141.815C135.799 142.014 135.746 142.251 135.746 142.519V146.908H133.722H133.714Z" fill="black"/>
<path d="M151.39 147.05C150.653 147.05 150.014 146.891 149.477 146.578C148.939 146.264 148.524 145.82 148.235 145.253C147.941 144.687 147.799 144.031 147.799 143.281C147.799 142.532 147.945 141.868 148.235 141.301C148.528 140.735 148.939 140.295 149.477 139.977C150.014 139.663 150.653 139.504 151.39 139.504C152.127 139.504 152.767 139.663 153.304 139.977C153.842 140.291 154.257 140.735 154.546 141.301C154.839 141.868 154.982 142.528 154.982 143.281C154.982 144.035 154.835 144.687 154.546 145.253C154.253 145.82 153.842 146.26 153.304 146.578C152.767 146.891 152.127 147.05 151.39 147.05ZM151.399 145.482C151.737 145.482 152.013 145.384 152.241 145.192C152.469 145.001 152.636 144.736 152.75 144.406C152.864 144.076 152.926 143.693 152.926 143.269C152.926 142.845 152.869 142.466 152.75 142.132C152.632 141.798 152.465 141.538 152.241 141.342C152.017 141.146 151.737 141.053 151.399 141.053C151.061 141.053 150.775 141.15 150.543 141.342C150.311 141.533 150.14 141.798 150.026 142.132C149.912 142.466 149.851 142.845 149.851 143.269C149.851 143.693 149.908 144.072 150.026 144.406C150.144 144.74 150.315 145.001 150.543 145.192C150.771 145.384 151.056 145.482 151.399 145.482Z" fill="black"/>
<path d="M159.771 139.598V141.122H155.264V139.598H159.771ZM156.294 146.907V139.072C156.294 138.543 156.396 138.103 156.603 137.752C156.811 137.402 157.096 137.141 157.459 136.966C157.821 136.791 158.232 136.705 158.688 136.705C158.998 136.705 159.283 136.73 159.543 136.778C159.8 136.827 159.995 136.868 160.122 136.909L159.759 138.433C159.678 138.408 159.584 138.384 159.466 138.363C159.348 138.343 159.234 138.331 159.112 138.331C158.815 138.331 158.607 138.4 158.489 138.539C158.371 138.677 158.314 138.869 158.314 139.117V146.916H156.294V146.907Z" fill="black"/>
<path d="M95.1516 163.046C94.8951 163.046 94.6548 163.026 94.4308 162.985C94.2069 162.944 94.0236 162.895 93.877 162.834L94.3331 161.323C94.5693 161.396 94.7851 161.437 94.9765 161.441C95.1679 161.449 95.3348 161.404 95.4774 161.306C95.6199 161.213 95.7339 161.05 95.8235 160.822L95.9416 160.512L93.3232 152.995H95.4529L96.9637 158.361H97.041L98.5681 152.995H100.714L97.8758 161.095C97.7414 161.49 97.5541 161.832 97.322 162.125C97.0899 162.419 96.7967 162.647 96.4384 162.806C96.0841 162.965 95.6565 163.046 95.1557 163.046H95.1516Z" fill="black"/>
<path d="M104.334 160.447C103.597 160.447 102.957 160.288 102.42 159.974C101.882 159.66 101.467 159.216 101.178 158.65C100.885 158.084 100.742 157.428 100.742 156.678C100.742 155.928 100.889 155.264 101.178 154.698C101.471 154.131 101.882 153.691 102.42 153.374C102.957 153.06 103.597 152.901 104.334 152.901C105.071 152.901 105.71 153.06 106.248 153.374C106.785 153.691 107.2 154.131 107.49 154.698C107.783 155.264 107.925 155.924 107.925 156.678C107.925 157.432 107.779 158.084 107.49 158.65C107.196 159.216 106.785 159.656 106.248 159.974C105.71 160.288 105.071 160.447 104.334 160.447ZM104.342 158.878C104.68 158.878 104.957 158.78 105.185 158.589C105.409 158.397 105.58 158.132 105.694 157.802C105.808 157.472 105.869 157.089 105.869 156.666C105.869 156.242 105.812 155.863 105.694 155.529C105.58 155.195 105.409 154.934 105.185 154.738C104.961 154.543 104.68 154.449 104.342 154.449C104.004 154.449 103.719 154.547 103.487 154.738C103.255 154.934 103.084 155.195 102.97 155.529C102.856 155.863 102.795 156.242 102.795 156.666C102.795 157.089 102.852 157.468 102.97 157.802C103.088 158.136 103.259 158.397 103.487 158.589C103.715 158.78 104 158.878 104.342 158.878Z" fill="black"/>
<path d="M113.468 157.195V152.999H115.496V160.308H113.549V158.98H113.472C113.309 159.408 113.032 159.754 112.654 160.011C112.275 160.267 111.807 160.402 111.257 160.402C110.768 160.402 110.341 160.292 109.97 160.068C109.6 159.848 109.31 159.53 109.103 159.122C108.895 158.715 108.789 158.222 108.785 157.652V152.999H110.809V157.289C110.809 157.721 110.927 158.063 111.155 158.312C111.383 158.564 111.689 158.686 112.071 158.686C112.316 158.686 112.544 158.629 112.755 158.519C112.967 158.405 113.138 158.238 113.273 158.018C113.407 157.798 113.468 157.521 113.464 157.195H113.468Z" fill="black"/>
<path d="M116.644 160.304V152.995H118.606V154.27H118.684C118.818 153.818 119.042 153.471 119.356 153.239C119.669 153.007 120.032 152.889 120.439 152.889C120.541 152.889 120.65 152.897 120.769 152.909C120.887 152.921 120.988 152.938 121.078 152.962V154.759C120.984 154.73 120.85 154.706 120.683 154.681C120.516 154.661 120.361 154.649 120.223 154.649C119.926 154.649 119.661 154.714 119.425 154.84C119.189 154.967 119.009 155.146 118.875 155.374C118.741 155.602 118.671 155.867 118.671 156.164V160.3H116.648L116.644 160.304Z" fill="black"/>
<path d="M127.581 160.446C126.832 160.446 126.189 160.288 125.651 159.97C125.113 159.652 124.702 159.208 124.413 158.642C124.124 158.075 123.981 157.419 123.981 156.682C123.981 155.944 124.128 155.276 124.417 154.71C124.706 154.143 125.122 153.699 125.655 153.381C126.193 153.064 126.828 152.905 127.565 152.905C128.204 152.905 128.762 153.019 129.238 153.251C129.715 153.483 130.098 153.809 130.375 154.225C130.651 154.645 130.806 155.133 130.835 155.7H128.921C128.868 155.333 128.725 155.04 128.497 154.816C128.269 154.592 127.968 154.482 127.597 154.482C127.284 154.482 127.011 154.567 126.779 154.734C126.547 154.901 126.364 155.15 126.233 155.476C126.103 155.802 126.038 156.193 126.038 156.649C126.038 157.105 126.103 157.513 126.229 157.839C126.36 158.165 126.539 158.413 126.775 158.585C127.011 158.756 127.284 158.841 127.597 158.841C127.83 158.841 128.037 158.792 128.225 158.699C128.412 158.605 128.563 158.466 128.685 158.283C128.807 158.1 128.888 157.88 128.925 157.623H130.839C130.806 158.181 130.656 158.674 130.383 159.094C130.11 159.518 129.739 159.848 129.263 160.088C128.786 160.324 128.225 160.446 127.573 160.446H127.581Z" fill="black"/>
<path d="M133.705 156.079V160.304H131.682V150.558H133.648V154.282H133.734C133.901 153.85 134.166 153.512 134.532 153.268C134.899 153.023 135.363 152.901 135.917 152.901C136.426 152.901 136.865 153.011 137.244 153.231C137.623 153.451 137.916 153.769 138.128 154.176C138.339 154.588 138.441 155.077 138.437 155.647V160.3H136.413V156.01C136.413 155.561 136.303 155.207 136.075 154.958C135.847 154.71 135.526 154.584 135.11 154.584C134.833 154.584 134.593 154.641 134.381 154.759C134.17 154.877 134.007 155.048 133.889 155.272C133.771 155.496 133.71 155.765 133.705 156.079Z" fill="black"/>
<path d="M142.872 160.447C142.135 160.447 141.495 160.288 140.958 159.974C140.42 159.66 140.005 159.216 139.716 158.65C139.423 158.084 139.28 157.428 139.28 156.678C139.28 155.928 139.427 155.264 139.716 154.698C140.009 154.131 140.42 153.691 140.958 153.374C141.495 153.06 142.135 152.901 142.872 152.901C143.609 152.901 144.248 153.06 144.786 153.374C145.323 153.691 145.739 154.131 146.028 154.698C146.321 155.264 146.463 155.924 146.463 156.678C146.463 157.432 146.317 158.084 146.028 158.65C145.734 159.216 145.323 159.656 144.786 159.974C144.248 160.288 143.609 160.447 142.872 160.447ZM142.88 158.878C143.218 158.878 143.495 158.78 143.723 158.589C143.947 158.397 144.118 158.132 144.232 157.802C144.346 157.472 144.407 157.089 144.407 156.666C144.407 156.242 144.35 155.863 144.232 155.529C144.118 155.195 143.947 154.934 143.723 154.738C143.499 154.543 143.218 154.449 142.88 154.449C142.542 154.449 142.257 154.547 142.025 154.738C141.793 154.934 141.622 155.195 141.508 155.529C141.394 155.863 141.333 156.242 141.333 156.666C141.333 157.089 141.39 157.468 141.508 157.802C141.626 158.136 141.797 158.397 142.025 158.589C142.253 158.78 142.538 158.878 142.88 158.878Z" fill="black"/>
<path d="M148.34 152.053C148.039 152.053 147.783 151.951 147.567 151.752C147.351 151.552 147.245 151.312 147.245 151.031C147.245 150.75 147.351 150.505 147.567 150.305C147.783 150.106 148.039 150.004 148.336 150.004C148.634 150.004 148.898 150.106 149.114 150.305C149.33 150.505 149.436 150.745 149.436 151.031C149.436 151.316 149.33 151.556 149.114 151.756C148.898 151.956 148.642 152.057 148.34 152.057V152.053ZM147.318 160.304V152.995H149.342V160.304H147.318Z" fill="black"/>
<path d="M153.793 160.446C153.044 160.446 152.4 160.288 151.863 159.97C151.325 159.652 150.914 159.208 150.625 158.642C150.336 158.075 150.193 157.419 150.193 156.682C150.193 155.944 150.34 155.276 150.629 154.71C150.918 154.143 151.334 153.699 151.867 153.381C152.404 153.064 153.04 152.905 153.777 152.905C154.416 152.905 154.974 153.019 155.45 153.251C155.927 153.483 156.31 153.809 156.586 154.225C156.863 154.645 157.018 155.133 157.047 155.7H155.133C155.08 155.333 154.937 155.04 154.709 154.816C154.481 154.592 154.18 154.482 153.809 154.482C153.496 154.482 153.223 154.567 152.991 154.734C152.759 154.901 152.576 155.15 152.445 155.476C152.315 155.802 152.25 156.193 152.25 156.649C152.25 157.105 152.315 157.513 152.441 157.839C152.571 158.165 152.751 158.413 152.987 158.585C153.223 158.756 153.496 158.841 153.809 158.841C154.041 158.841 154.249 158.792 154.436 158.699C154.624 158.605 154.774 158.466 154.897 158.283C155.019 158.1 155.1 157.88 155.137 157.623H157.051C157.018 158.181 156.867 158.674 156.595 159.094C156.322 159.518 155.951 159.848 155.475 160.088C154.998 160.324 154.436 160.446 153.785 160.446H153.793Z" fill="black"/>
<path d="M161.221 160.447C160.472 160.447 159.824 160.292 159.283 159.986C158.741 159.681 158.326 159.245 158.032 158.683C157.739 158.12 157.597 157.452 157.597 156.682C157.597 155.912 157.743 155.272 158.032 154.702C158.326 154.136 158.737 153.691 159.266 153.374C159.796 153.056 160.423 152.897 161.139 152.897C161.62 152.897 162.072 152.974 162.487 153.129C162.903 153.284 163.269 153.512 163.583 153.822C163.896 154.132 164.14 154.515 164.311 154.979C164.487 155.443 164.572 155.985 164.572 156.609V157.167H158.403V155.912H162.662C162.662 155.619 162.597 155.362 162.471 155.138C162.345 154.914 162.17 154.735 161.946 154.608C161.722 154.482 161.461 154.417 161.168 154.417C160.875 154.417 160.59 154.486 160.353 154.629C160.117 154.771 159.934 154.959 159.8 155.195C159.665 155.431 159.6 155.692 159.596 155.981V157.175C159.596 157.538 159.665 157.847 159.8 158.112C159.934 158.377 160.125 158.577 160.374 158.723C160.622 158.866 160.915 158.939 161.253 158.939C161.477 158.939 161.685 158.907 161.872 158.846C162.06 158.78 162.218 158.687 162.353 158.56C162.487 158.434 162.589 158.279 162.658 158.096L164.531 158.218C164.438 158.67 164.242 159.062 163.949 159.396C163.656 159.73 163.277 159.991 162.817 160.178C162.357 160.365 161.823 160.455 161.221 160.455V160.447Z" fill="black"/>
<path d="M263.079 176.142C262.708 176.142 262.362 175.905 262.244 175.53L261.975 174.695C261.829 174.235 262.081 173.738 262.546 173.591C263.01 173.444 263.503 173.697 263.649 174.161L263.918 174.997C264.064 175.457 263.812 175.954 263.348 176.101C263.258 176.129 263.169 176.142 263.079 176.142ZM260.408 167.781C260.037 167.781 259.691 167.545 259.573 167.17L259.304 166.334C259.158 165.874 259.41 165.377 259.874 165.23C260.334 165.084 260.831 165.336 260.978 165.801L261.247 166.636C261.393 167.096 261.141 167.593 260.677 167.74C260.587 167.769 260.497 167.781 260.408 167.781ZM257.736 159.42C257.366 159.42 257.02 159.184 256.902 158.809L256.633 157.974C256.486 157.513 256.739 157.016 257.203 156.87C257.663 156.723 258.16 156.976 258.307 157.44L258.575 158.275C258.722 158.736 258.469 159.233 258.005 159.379C257.916 159.408 257.826 159.42 257.736 159.42ZM255.065 151.06C254.695 151.06 254.349 150.823 254.23 150.448L253.962 149.613C253.815 149.153 254.068 148.656 254.532 148.509C254.992 148.362 255.489 148.615 255.635 149.079L255.904 149.915C256.051 150.375 255.798 150.872 255.334 151.019C255.244 151.047 255.155 151.06 255.065 151.06ZM252.394 142.699C252.023 142.699 251.677 142.463 251.559 142.088L251.29 141.252C251.144 140.792 251.396 140.295 251.861 140.148C252.321 140.002 252.817 140.254 252.964 140.719L253.233 141.554C253.379 142.014 253.127 142.511 252.663 142.658C252.573 142.687 252.484 142.699 252.394 142.699ZM249.723 134.338C249.352 134.338 249.006 134.102 248.888 133.727L248.619 132.892C248.473 132.431 248.725 131.934 249.189 131.788C249.649 131.641 250.146 131.894 250.293 132.358L250.562 133.193C250.708 133.654 250.456 134.151 249.991 134.297C249.902 134.326 249.812 134.338 249.723 134.338ZM247.051 125.977C246.681 125.977 246.335 125.741 246.217 125.366L245.948 124.531C245.801 124.071 246.054 123.574 246.518 123.427C246.982 123.28 247.475 123.533 247.621 123.997L247.89 124.833C248.037 125.293 247.784 125.79 247.32 125.937C247.231 125.965 247.141 125.977 247.051 125.977Z" fill="#F5A405"/>
<path d="M320.573 175.497C320.483 175.497 320.389 175.485 320.3 175.453C319.84 175.302 319.587 174.805 319.738 174.344L320.011 173.509C320.161 173.049 320.654 172.796 321.118 172.947C321.578 173.098 321.831 173.595 321.68 174.055L321.407 174.89C321.285 175.261 320.943 175.493 320.573 175.493V175.497ZM323.297 167.153C323.207 167.153 323.114 167.141 323.024 167.108C322.564 166.957 322.311 166.46 322.462 166L322.735 165.165C322.886 164.704 323.378 164.452 323.843 164.602C324.303 164.753 324.555 165.25 324.404 165.711L324.132 166.546C324.01 166.917 323.667 167.149 323.297 167.149V167.153ZM326.021 158.809C325.932 158.809 325.838 158.796 325.748 158.764C325.288 158.613 325.036 158.116 325.186 157.656L325.459 156.82C325.61 156.36 326.103 156.107 326.567 156.258C327.027 156.409 327.279 156.906 327.129 157.366L326.856 158.202C326.734 158.572 326.392 158.805 326.021 158.805V158.809ZM328.749 150.464C328.66 150.464 328.566 150.452 328.477 150.419C328.016 150.269 327.764 149.772 327.915 149.311L328.187 148.476C328.338 148.016 328.831 147.763 329.295 147.914C329.755 148.064 330.008 148.562 329.857 149.022L329.584 149.857C329.462 150.228 329.12 150.464 328.749 150.464ZM331.474 142.12C331.384 142.12 331.29 142.108 331.201 142.075C330.741 141.924 330.488 141.427 330.639 140.967L330.912 140.132C331.062 139.671 331.555 139.419 332.019 139.569C332.479 139.72 332.732 140.217 332.581 140.678L332.308 141.513C332.186 141.884 331.844 142.116 331.474 142.116V142.12ZM334.198 133.775C334.108 133.775 334.015 133.763 333.925 133.731C333.465 133.58 333.212 133.083 333.363 132.622L333.636 131.787C333.787 131.327 334.279 131.074 334.743 131.225C335.204 131.376 335.456 131.873 335.305 132.333L335.033 133.168C334.91 133.539 334.568 133.771 334.198 133.771V133.775ZM336.922 125.431C336.832 125.431 336.739 125.419 336.649 125.386C336.189 125.236 335.937 124.738 336.087 124.278L336.36 123.443C336.511 122.982 337.003 122.73 337.468 122.881C337.928 123.031 338.18 123.528 338.03 123.989L337.757 124.824C337.635 125.195 337.293 125.427 336.922 125.427V125.431Z" fill="#F5A405"/>
<path d="M372.926 206.259C372.65 206.259 372.381 206.129 372.21 205.889C371.933 205.493 372.027 204.943 372.422 204.666L373.138 204.161C373.533 203.884 374.083 203.978 374.36 204.373C374.637 204.768 374.543 205.318 374.148 205.595L373.431 206.101C373.277 206.211 373.102 206.259 372.926 206.259ZM380.101 201.211C379.825 201.211 379.556 201.081 379.385 200.84C379.108 200.445 379.202 199.895 379.596 199.618L380.313 199.113C380.708 198.836 381.258 198.93 381.535 199.325C381.812 199.72 381.718 200.27 381.323 200.547L380.606 201.052C380.452 201.162 380.277 201.211 380.101 201.211ZM387.276 196.163C386.999 196.163 386.731 196.033 386.56 195.792C386.283 195.397 386.376 194.847 386.771 194.57L387.488 194.065C387.883 193.788 388.433 193.881 388.71 194.277C388.987 194.672 388.893 195.222 388.498 195.499L387.781 196.004C387.627 196.114 387.451 196.163 387.276 196.163ZM394.451 191.115C394.174 191.115 393.906 190.984 393.735 190.74C393.458 190.345 393.551 189.795 393.946 189.518L394.663 189.012C395.058 188.731 395.608 188.829 395.885 189.224C396.162 189.62 396.068 190.17 395.673 190.447L394.956 190.952C394.802 191.062 394.626 191.111 394.451 191.111V191.115ZM401.626 186.067C401.349 186.067 401.081 185.936 400.91 185.692C400.633 185.297 400.726 184.747 401.121 184.469L401.838 183.964C402.233 183.683 402.783 183.781 403.06 184.176C403.337 184.571 403.243 185.121 402.848 185.398L402.131 185.904C401.977 186.014 401.801 186.063 401.626 186.063V186.067ZM408.801 181.018C408.524 181.018 408.256 180.888 408.085 180.648C407.808 180.252 407.901 179.702 408.296 179.425L409.013 178.92C409.408 178.639 409.958 178.737 410.235 179.132C410.512 179.527 410.418 180.077 410.023 180.354L409.306 180.86C409.151 180.97 408.976 181.018 408.801 181.018Z" fill="#F5A405"/>
<path d="M436.386 266.084C436.386 266.084 436.374 266.084 436.366 266.084L435.49 266.063C435.006 266.051 434.623 265.652 434.635 265.167C434.648 264.682 435.063 264.291 435.531 264.311L436.407 264.332C436.891 264.344 437.274 264.743 437.262 265.228C437.25 265.705 436.859 266.084 436.386 266.084ZM427.615 265.876C427.615 265.876 427.603 265.876 427.595 265.876L426.719 265.856C426.235 265.843 425.852 265.444 425.864 264.959C425.876 264.474 426.28 264.075 426.76 264.104L427.635 264.124C428.12 264.136 428.503 264.535 428.491 265.02C428.478 265.497 428.087 265.876 427.615 265.876ZM418.844 265.668C418.844 265.668 418.832 265.668 418.824 265.668L417.948 265.648C417.463 265.635 417.081 265.236 417.093 264.751C417.105 264.267 417.525 263.871 417.989 263.896L418.864 263.916C419.349 263.928 419.732 264.328 419.719 264.812C419.707 265.289 419.316 265.668 418.844 265.668ZM410.073 265.46C410.073 265.46 410.06 265.46 410.052 265.46L409.177 265.44C408.692 265.428 408.31 265.028 408.322 264.544C408.334 264.059 408.741 263.659 409.218 263.688L410.093 263.708C410.578 263.721 410.96 264.12 410.948 264.605C410.936 265.081 410.545 265.46 410.073 265.46ZM401.302 265.253C401.302 265.253 401.289 265.253 401.281 265.253L400.406 265.232C399.921 265.22 399.538 264.821 399.551 264.336C399.563 263.851 399.958 263.456 400.446 263.48L401.322 263.501C401.806 263.513 402.189 263.912 402.177 264.397C402.165 264.874 401.774 265.253 401.302 265.253ZM392.53 265.045C392.53 265.045 392.518 265.045 392.51 265.045L391.634 265.024C391.15 265.012 390.767 264.613 390.779 264.128C390.792 263.643 391.199 263.252 391.675 263.272L392.551 263.293C393.035 263.305 393.418 263.704 393.406 264.189C393.394 264.666 393.003 265.045 392.53 265.045ZM383.759 264.837C383.759 264.837 383.747 264.837 383.739 264.837L382.863 264.817C382.379 264.804 381.996 264.405 382.008 263.92C382.02 263.435 382.415 263.04 382.904 263.065L383.779 263.085C384.264 263.097 384.647 263.496 384.635 263.981C384.622 264.458 384.231 264.837 383.759 264.837Z" fill="#F5A405"/>
<path d="M408.55 349.691C408.37 349.691 408.191 349.638 408.036 349.524L407.328 349.01C406.937 348.725 406.847 348.175 407.132 347.784C407.418 347.393 407.967 347.303 408.358 347.588L409.067 348.102C409.458 348.387 409.547 348.937 409.262 349.328C409.091 349.564 408.822 349.691 408.55 349.691ZM401.448 344.541C401.269 344.541 401.09 344.488 400.935 344.373L400.222 343.86C399.831 343.575 399.742 343.029 400.027 342.634C400.312 342.243 400.857 342.153 401.252 342.438L401.965 342.952C402.356 343.237 402.446 343.783 402.16 344.178C401.989 344.414 401.721 344.541 401.448 344.541ZM394.346 339.39C394.167 339.39 393.988 339.337 393.833 339.223L393.125 338.71C392.734 338.425 392.644 337.879 392.929 337.484C393.214 337.092 393.76 337.003 394.155 337.288L394.863 337.801C395.254 338.087 395.344 338.633 395.059 339.028C394.888 339.264 394.619 339.39 394.346 339.39ZM387.245 334.24C387.065 334.24 386.886 334.187 386.731 334.073L386.023 333.56C385.632 333.275 385.542 332.729 385.827 332.334C386.113 331.942 386.658 331.853 387.053 332.138L387.762 332.651C388.153 332.937 388.242 333.483 387.957 333.878C387.786 334.114 387.517 334.24 387.245 334.24ZM380.143 329.09C379.964 329.09 379.785 329.037 379.63 328.923L378.921 328.41C378.53 328.125 378.441 327.575 378.726 327.184C379.011 326.792 379.561 326.703 379.952 326.988L380.66 327.501C381.051 327.787 381.141 328.337 380.855 328.728C380.684 328.964 380.416 329.09 380.143 329.09ZM373.041 323.94C372.862 323.94 372.683 323.887 372.528 323.773L371.816 323.26C371.425 322.975 371.335 322.429 371.62 322.034C371.905 321.642 372.451 321.553 372.846 321.838L373.558 322.351C373.949 322.637 374.039 323.182 373.754 323.578C373.583 323.814 373.314 323.94 373.041 323.94Z" fill="#F5A405"/>
<path d="M335.717 401.309C335.346 401.309 335.004 401.073 334.882 400.702L334.609 399.867C334.459 399.406 334.711 398.909 335.171 398.758C335.631 398.608 336.128 398.86 336.279 399.321L336.552 400.156C336.702 400.616 336.45 401.113 335.99 401.264C335.9 401.293 335.806 401.309 335.717 401.309ZM333.001 392.965C332.63 392.965 332.288 392.728 332.166 392.358L331.893 391.522C331.743 391.062 331.995 390.565 332.455 390.414C332.915 390.263 333.412 390.516 333.563 390.976L333.836 391.812C333.986 392.272 333.734 392.769 333.274 392.92C333.184 392.948 333.09 392.965 333.001 392.965ZM330.285 384.616C329.914 384.616 329.572 384.38 329.45 384.009L329.177 383.174C329.026 382.713 329.279 382.216 329.739 382.066C330.199 381.919 330.696 382.167 330.847 382.628L331.119 383.463C331.27 383.924 331.018 384.421 330.558 384.571C330.468 384.6 330.374 384.616 330.285 384.616ZM327.569 376.272C327.198 376.272 326.856 376.036 326.734 375.665L326.461 374.829C326.31 374.369 326.563 373.872 327.023 373.721C327.483 373.57 327.98 373.823 328.131 374.284L328.403 375.119C328.554 375.579 328.302 376.076 327.841 376.227C327.752 376.256 327.658 376.272 327.569 376.272ZM324.853 367.927C324.482 367.927 324.14 367.691 324.018 367.32L323.745 366.485C323.594 366.025 323.847 365.528 324.307 365.377C324.767 365.226 325.264 365.479 325.415 365.939L325.687 366.774C325.838 367.235 325.586 367.732 325.125 367.883C325.036 367.911 324.942 367.927 324.853 367.927ZM322.137 359.579C321.766 359.579 321.424 359.343 321.302 358.972L321.029 358.137C320.878 357.676 321.131 357.179 321.591 357.028C322.051 356.882 322.548 357.13 322.698 357.591L322.971 358.426C323.122 358.886 322.87 359.383 322.409 359.534C322.32 359.563 322.226 359.579 322.137 359.579Z" fill="#F5A405"/>
<path d="M246.229 402.674C246.139 402.674 246.046 402.658 245.956 402.629C245.496 402.479 245.244 401.981 245.394 401.521L245.667 400.686C245.818 400.225 246.314 399.973 246.775 400.124C247.235 400.274 247.487 400.771 247.337 401.232L247.064 402.067C246.942 402.438 246.6 402.67 246.229 402.67V402.674ZM248.961 394.334C248.872 394.334 248.778 394.318 248.688 394.289C248.228 394.138 247.976 393.641 248.127 393.181L248.399 392.346C248.55 391.885 249.043 391.632 249.507 391.783C249.967 391.934 250.22 392.431 250.069 392.891L249.796 393.727C249.674 394.098 249.332 394.33 248.961 394.33V394.334ZM251.694 385.994C251.604 385.994 251.51 385.977 251.421 385.949C250.961 385.798 250.708 385.301 250.859 384.84L251.132 384.005C251.282 383.545 251.779 383.292 252.239 383.443C252.699 383.594 252.952 384.091 252.801 384.551L252.528 385.386C252.406 385.757 252.064 385.989 251.694 385.989V385.994ZM254.426 377.653C254.336 377.653 254.243 377.637 254.153 377.608C253.693 377.458 253.441 376.961 253.591 376.5L253.864 375.665C254.015 375.204 254.512 374.952 254.972 375.103C255.432 375.253 255.684 375.75 255.534 376.211L255.261 377.046C255.139 377.417 254.797 377.649 254.426 377.649V377.653ZM257.158 369.313C257.069 369.313 256.975 369.297 256.886 369.268C256.425 369.117 256.173 368.62 256.324 368.16L256.596 367.325C256.747 366.864 257.244 366.612 257.704 366.762C258.164 366.913 258.417 367.41 258.266 367.871L257.993 368.706C257.871 369.077 257.529 369.309 257.158 369.309V369.313ZM259.891 360.973C259.801 360.973 259.707 360.956 259.618 360.928C259.158 360.777 258.905 360.28 259.056 359.82L259.329 358.984C259.479 358.524 259.976 358.271 260.436 358.422C260.897 358.573 261.149 359.07 260.998 359.53L260.725 360.366C260.603 360.736 260.261 360.969 259.891 360.969V360.973ZM262.623 352.632C262.533 352.632 262.44 352.616 262.35 352.587C261.89 352.437 261.638 351.94 261.788 351.479L262.061 350.644C262.212 350.184 262.709 349.931 263.169 350.082C263.629 350.232 263.881 350.73 263.731 351.19L263.458 352.025C263.336 352.396 262.994 352.628 262.623 352.628V352.632Z" fill="#F5A405"/>
<path d="M174.044 349.035C173.767 349.035 173.494 348.904 173.323 348.656C173.046 348.256 173.148 347.711 173.543 347.433L174.264 346.932C174.663 346.655 175.209 346.757 175.486 347.152C175.762 347.552 175.661 348.098 175.266 348.375L174.545 348.876C174.394 348.982 174.219 349.031 174.048 349.031L174.044 349.035ZM181.256 344.039C180.979 344.039 180.706 343.909 180.535 343.661C180.258 343.261 180.36 342.715 180.755 342.438L181.476 341.937C181.875 341.66 182.42 341.762 182.697 342.157C182.974 342.556 182.872 343.102 182.477 343.379L181.757 343.881C181.606 343.987 181.431 344.035 181.26 344.035L181.256 344.039ZM188.467 339.044C188.19 339.044 187.918 338.914 187.747 338.665C187.47 338.266 187.571 337.72 187.966 337.443L188.687 336.942C189.086 336.665 189.632 336.767 189.909 337.162C190.186 337.561 190.084 338.107 189.689 338.384L188.968 338.885C188.817 338.991 188.642 339.04 188.471 339.04L188.467 339.044ZM195.679 334.049C195.402 334.049 195.129 333.919 194.958 333.67C194.681 333.271 194.783 332.725 195.178 332.448L195.899 331.947C196.298 331.67 196.843 331.771 197.12 332.167C197.397 332.566 197.295 333.112 196.901 333.389L196.18 333.89C196.029 333.996 195.854 334.045 195.683 334.045L195.679 334.049ZM202.891 329.054C202.614 329.054 202.337 328.923 202.17 328.675C201.893 328.276 201.995 327.73 202.394 327.453L203.114 326.951C203.514 326.674 204.059 326.776 204.336 327.176C204.613 327.575 204.511 328.121 204.112 328.398L203.391 328.899C203.241 329.005 203.066 329.054 202.895 329.054H202.891ZM210.102 324.059C209.825 324.059 209.552 323.928 209.381 323.68C209.104 323.28 209.206 322.734 209.601 322.457L210.322 321.956C210.721 321.679 211.267 321.781 211.544 322.176C211.821 322.571 211.719 323.121 211.324 323.399L210.603 323.9C210.452 324.006 210.277 324.055 210.106 324.055L210.102 324.059Z" fill="#F5A405"/>
<path d="M201.09 264.743H200.215C199.73 264.743 199.339 264.352 199.339 263.867C199.339 263.382 199.73 262.991 200.215 262.991H201.09C201.575 262.991 201.966 263.382 201.966 263.867C201.966 264.352 201.575 264.743 201.09 264.743ZM192.319 264.743H191.443C190.959 264.743 190.568 264.352 190.568 263.867C190.568 263.382 190.959 262.991 191.443 262.991H192.319C192.804 262.991 193.194 263.382 193.194 263.867C193.194 264.352 192.804 264.743 192.319 264.743ZM183.548 264.743H182.672C182.188 264.743 181.797 264.352 181.797 263.867C181.797 263.382 182.188 262.991 182.672 262.991H183.548C184.032 262.991 184.423 263.382 184.423 263.867C184.423 264.352 184.032 264.743 183.548 264.743ZM174.777 264.743H173.901C173.416 264.743 173.026 264.352 173.026 263.867C173.026 263.382 173.416 262.991 173.901 262.991H174.777C175.261 262.991 175.652 263.382 175.652 263.867C175.652 264.352 175.261 264.743 174.777 264.743ZM166.005 264.743H165.13C164.645 264.743 164.254 264.352 164.254 263.867C164.254 263.382 164.645 262.991 165.13 262.991H166.005C166.49 262.991 166.881 263.382 166.881 263.867C166.881 264.352 166.49 264.743 166.005 264.743ZM157.234 264.743H156.359C155.874 264.743 155.483 264.352 155.483 263.867C155.483 263.382 155.874 262.991 156.359 262.991H157.234C157.719 262.991 158.11 263.382 158.11 263.867C158.11 264.352 157.719 264.743 157.234 264.743ZM148.463 264.743H147.587C147.103 264.743 146.712 264.352 146.712 263.867C146.712 263.382 147.103 262.991 147.587 262.991H148.463C148.947 262.991 149.338 263.382 149.338 263.867C149.338 264.352 148.947 264.743 148.463 264.743Z" fill="#F5A405"/>
<path d="M210.883 206.768C210.704 206.768 210.525 206.716 210.37 206.601L209.657 206.088C209.262 205.807 209.173 205.257 209.458 204.862C209.739 204.466 210.289 204.377 210.684 204.662L211.396 205.175C211.791 205.457 211.881 206.007 211.596 206.402C211.425 206.638 211.156 206.768 210.883 206.768ZM203.765 201.639C203.586 201.639 203.407 201.586 203.252 201.472L202.539 200.958C202.144 200.677 202.055 200.127 202.34 199.732C202.621 199.337 203.171 199.247 203.566 199.532L204.278 200.046C204.673 200.327 204.763 200.877 204.478 201.272C204.307 201.508 204.038 201.639 203.765 201.639ZM196.647 196.509C196.468 196.509 196.289 196.456 196.134 196.342L195.421 195.829C195.026 195.548 194.937 194.998 195.222 194.602C195.507 194.211 196.053 194.117 196.448 194.403L197.16 194.916C197.555 195.197 197.645 195.747 197.36 196.142C197.189 196.379 196.92 196.509 196.647 196.509ZM189.529 191.379C189.35 191.379 189.171 191.327 189.016 191.212L188.303 190.699C187.908 190.414 187.823 189.868 188.104 189.473C188.389 189.077 188.935 188.992 189.33 189.273L190.042 189.786C190.437 190.072 190.523 190.618 190.242 191.013C190.071 191.249 189.802 191.379 189.529 191.379ZM182.411 186.25C182.232 186.25 182.053 186.197 181.898 186.083L181.186 185.569C180.791 185.284 180.705 184.738 180.986 184.343C181.271 183.948 181.817 183.862 182.212 184.143L182.924 184.657C183.319 184.942 183.405 185.488 183.124 185.883C182.953 186.119 182.684 186.25 182.411 186.25ZM175.293 181.12C175.114 181.12 174.935 181.067 174.78 180.953L174.068 180.44C173.673 180.154 173.587 179.609 173.868 179.213C174.153 178.818 174.699 178.733 175.094 179.014L175.806 179.527C176.201 179.812 176.287 180.358 176.006 180.753C175.835 180.99 175.566 181.12 175.293 181.12Z" fill="#F5A405"/>
<path d="M241.229 237.97C241.229 225.837 251.058 216.005 263.181 216.005H319.636C331.763 216.005 341.588 225.841 341.588 237.97C341.588 250.104 331.758 259.936 319.636 259.936H263.181C251.054 259.936 241.229 250.1 241.229 237.97Z" fill="white"/>
<path d="M341.592 292.889C341.592 305.023 331.762 314.855 319.64 314.855H263.185C251.058 314.855 241.232 305.019 241.232 292.889C241.232 280.756 251.062 270.924 263.185 270.924H319.64C331.766 270.924 341.592 280.76 341.592 292.889Z" fill="white"/>
<path d="M319.64 304.656C326.135 304.656 331.4 299.388 331.4 292.889C331.4 286.391 326.135 281.123 319.64 281.123C313.145 281.123 307.88 286.391 307.88 292.889C307.88 299.388 313.145 304.656 319.64 304.656Z" fill="#F5A405"/>
<path d="M263.185 249.737C269.68 249.737 274.945 244.469 274.945 237.97C274.945 231.472 269.68 226.204 263.185 226.204C256.69 226.204 251.425 231.472 251.425 237.97C251.425 244.469 256.69 249.737 263.185 249.737Z" fill="#E55035"/>
</g>
<defs>
<filter id="filter0_d_129_2168" x="0.229334" y="0.456118" width="582.542" height="567.541" filterUnits="userSpaceOnUse" color-interpolation-filters="sRGB">
<feFlood flood-opacity="0" result="BackgroundImageFix"/>
<feColorMatrix in="SourceAlpha" type="matrix" values="0 0 0 0 0 0 0 0 0 0 0 0 0 0 0 0 0 0 127 0" result="hardAlpha"/>
<feMorphology radius="8.81767" operator="erode" in="SourceAlpha" result="effect1_dropShadow_129_2168"/>
<feOffset dy="22.0442"/>
<feGaussianBlur stdDeviation="22.0442"/>
<feComposite in2="hardAlpha" operator="out"/>
<feColorMatrix type="matrix" values="0 0 0 0 0.196078 0 0 0 0 0.196078 0 0 0 0 0.364706 0 0 0 0.2 0"/>
<feBlend mode="normal" in2="BackgroundImageFix" result="effect1_dropShadow_129_2168"/>
<feBlend mode="normal" in="SourceGraphic" in2="effect1_dropShadow_129_2168" result="shape"/>
</filter>
</defs>
</svg>
